<?xml version="1.0" encoding="iso-8859-1"?>
<!-- Generator: Adobe Illustrator 19.0.0, SVG Export Plug-In . SVG Version: 6.00 Build 0)  -->
<svg version="1.1" id="Capa_1" xmlns="http://www.w3.org/2000/svg" xmlns:xlink="http://www.w3.org/1999/xlink" x="0px" y="0px"
	 viewBox="0 0 512 512" style="enable-background:new 0 0 512 512;" xml:space="preserve">
<g>
	<path style="fill:#FFAF46;" d="M256,8.533C119.33,8.533,8.533,119.33,8.533,256S119.33,503.467,256,503.467
		S503.467,392.67,503.467,256S392.67,8.533,256,8.533z M256,469.333C138.18,469.333,42.667,373.82,42.667,256
		S138.18,42.667,256,42.667S469.333,138.18,469.333,256C469.205,373.769,373.769,469.205,256,469.333z"/>
	<path style="fill:#FFAF46;" d="M256,42.667C138.18,42.667,42.667,138.18,42.667,256S138.18,469.333,256,469.333
		S469.333,373.82,469.333,256C469.205,138.231,373.769,42.795,256,42.667z M338.432,355.499
		c-12.817,12.791-30.191,19.968-48.299,19.968H281.6v25.6h-34.133v-25.6h-34.133v25.6H179.2v-25.6h-25.6v-34.133h25.6V170.667h-25.6
		v-34.133h25.6v-25.6h34.133v25.6h34.133v-25.6H281.6v27.733c36.506,9.421,58.462,46.66,49.041,83.166
		c-2.21,8.55-6.05,16.589-11.324,23.671c34.091,16.102,48.674,56.798,32.563,90.889
		C348.527,343.484,343.979,349.952,338.432,355.499z"/>
	<path style="fill:#FFAF46;" d="M298.667,204.8c0-18.85-15.283-34.133-34.133-34.133h-51.2v68.267h51.2
		C283.383,238.933,298.667,223.65,298.667,204.8z"/>
	<path style="fill:#FFAF46;" d="M290.133,273.067h-76.8v68.267h76.8c18.85,0,34.133-15.283,34.133-34.133
		S308.983,273.067,290.133,273.067z"/>
	<path style="fill:#FFAF46;" d="M319.317,245.504c22.502-30.251,16.213-73.02-14.046-95.514c-7.083-5.265-15.13-9.114-23.671-11.324
		v-27.733h-34.133v25.6h-34.133v-25.6H179.2v25.6h-25.6v34.133h25.6v170.667h-25.6v34.133h25.6v25.6h34.133v-25.6h34.133v25.6H281.6
		v-25.6h8.533c37.7-0.017,68.25-30.601,68.233-68.301C358.349,280.789,343.151,256.794,319.317,245.504z M213.333,170.667h51.2
		c18.85,0,34.133,15.283,34.133,34.133s-15.283,34.133-34.133,34.133h-51.2V170.667z M290.133,341.333h-76.8v-68.267h76.8
		c18.85,0,34.133,15.283,34.133,34.133S308.983,341.333,290.133,341.333z"/>
</g>
<g>
	<path style="fill:#231F20;" d="M281.6,409.6h-34.133c-4.71,0-8.533-3.823-8.533-8.533V384h-17.067v17.067
		c0,4.71-3.823,8.533-8.533,8.533H179.2c-4.71,0-8.533-3.823-8.533-8.533V384H153.6c-4.71,0-8.533-3.823-8.533-8.533v-34.133
		c0-4.71,3.823-8.533,8.533-8.533h17.067V179.2H153.6c-4.71,0-8.533-3.823-8.533-8.533v-34.133c0-4.71,3.823-8.533,8.533-8.533
		h17.067v-17.067c0-4.71,3.823-8.533,8.533-8.533h34.133c4.71,0,8.533,3.823,8.533,8.533V128h17.067v-17.067
		c0-4.71,3.823-8.533,8.533-8.533H281.6c4.71,0,8.533,3.823,8.533,8.533v21.419c40.013,14.165,60.962,58.086,46.788,98.099
		c-1.476,4.164-3.302,8.192-5.47,12.041c35.738,22.844,46.191,70.34,23.347,106.069c-14.106,22.067-38.477,35.422-64.666,35.439
		v17.067C290.133,405.777,286.31,409.6,281.6,409.6z M256,392.533h17.067v-17.067c0-4.71,3.823-8.533,8.533-8.533h8.533
		c32.99-0.017,59.716-26.778,59.699-59.767c-0.017-23.074-13.312-44.075-34.159-53.948c-4.258-2.014-6.076-7.108-4.062-11.366
		c0.239-0.503,0.529-0.99,0.862-1.434c19.686-26.47,14.191-63.889-12.279-83.575c-6.204-4.617-13.244-7.979-20.727-9.916
		c-3.763-0.973-6.4-4.369-6.4-8.26v-19.2H256v17.067c0,4.71-3.823,8.533-8.533,8.533h-34.133c-4.71,0-8.533-3.823-8.533-8.533
		v-17.067h-17.067v17.067c0,4.71-3.823,8.533-8.533,8.533h-17.067v17.067H179.2c4.71,0,8.533,3.823,8.533,8.533v170.667
		c0,4.71-3.823,8.533-8.533,8.533h-17.067v17.067H179.2c4.71,0,8.533,3.823,8.533,8.533v17.067H204.8v-17.067
		c0-4.71,3.823-8.533,8.533-8.533h34.133c4.71,0,8.533,3.823,8.533,8.533V392.533z M290.133,349.867h-76.8
		c-4.71,0-8.533-3.823-8.533-8.533v-68.267c0-4.71,3.823-8.533,8.533-8.533h76.8c23.561,0,42.667,19.106,42.667,42.667
		S313.694,349.867,290.133,349.867z M221.867,332.8h68.267c14.14,0,25.6-11.46,25.6-25.6s-11.46-25.6-25.6-25.6h-68.267V332.8z
		 M264.533,247.467h-51.2c-4.71,0-8.533-3.823-8.533-8.533v-68.267c0-4.71,3.823-8.533,8.533-8.533h51.2
		c23.561,0,42.667,19.106,42.667,42.667S288.094,247.467,264.533,247.467z M221.867,230.4h42.667c14.14,0,25.6-11.46,25.6-25.6
		c0-14.14-11.46-25.6-25.6-25.6h-42.667V230.4z"/>
	<path style="fill:#231F20;" d="M256,512C114.611,512,0,397.389,0,256S114.611,0,256,0s256,114.611,256,256
		C511.838,397.321,397.321,511.838,256,512z M256,17.067C124.041,17.067,17.067,124.041,17.067,256S124.041,494.933,256,494.933
		S494.933,387.96,494.933,256C494.78,124.1,387.9,17.22,256,17.067z"/>
	<path style="fill:#231F20;" d="M256,477.867C133.47,477.867,34.133,378.53,34.133,256S133.47,34.133,256,34.133
		S477.867,133.47,477.867,256C477.722,378.479,378.479,477.722,256,477.867z M256,51.2C142.891,51.2,51.2,142.891,51.2,256
		S142.891,460.8,256,460.8S460.8,369.109,460.8,256C460.672,142.95,369.05,51.328,256,51.2z"/>
</g>
<g>
</g>
<g>
</g>
<g>
</g>
<g>
</g>
<g>
</g>
<g>
</g>
<g>
</g>
<g>
</g>
<g>
</g>
<g>
</g>
<g>
</g>
<g>
</g>
<g>
</g>
<g>
</g>
<g>
</g>
</svg>
