<svg id="logo-bloomberg-business" xmlns="http://www.w3.org/2000/svg" viewBox="0 0 500.561 156.818"><style>.logo-bloomberg-business-st0{fill:#9b9b9b;}.logo-bloomberg-business-st1{fill:#9b9b9b;}</style><path class="logo-bloomberg-business-st0" d="M447.79 74.937h18.064c.696 2.284 3.08 4.57 7.546 4.57 6.052 0 8.14-3.775 8.14-9.335v-3.97h-.4c-2.976 3.476-6.95 6.057-12.804 6.057-11.514 0-21.54-8.54-21.54-25.213 0-15.286 8.24-27.196 20.647-27.196 7.147 0 11.515 2.88 14.393 7.445h.296V21.44H500v46.252c0 8.536-2.977 15.186-7.444 19.158-4.664 4.167-11.317 5.855-18.86 5.855-14.194 0-24.12-5.855-25.907-17.768m34.54-28.783c0-6.65-3.174-12.01-8.633-12.01-5.262 0-8.637 4.764-8.637 12.01 0 7.147 3.375 12.307 8.637 12.307 5.46 0 8.633-5.258 8.633-12.306m-55.483-15.582h.297c3.87-7.445 8.933-10.224 15.384-10.224 1.487 0 2.483.2 3.076.496V37.22h-.396c-11.016-1.983-17.468 3.278-17.468 15.287V74.84h-18.76v-53.4h17.867v9.132zM0 0h36.726c6.946 0 12.306 1.688 16.08 4.764 4.266 3.474 6.55 8.636 6.55 14.79 0 7.146-2.877 11.613-8.834 14.39v.3c7.744 2.58 12.207 9.526 12.207 17.964 0 8.04-3.077 14.292-8.14 18.065-4.266 3.077-9.823 4.566-17.168 4.566H0V0zm34.94 58.262c4.466 0 7.74-2.68 7.74-7.64 0-5.164-3.574-7.644-7.84-7.644H20.35v15.284h14.59zM33.054 29.28c3.97 0 6.847-2.183 6.847-6.55 0-4.268-2.976-6.353-6.945-6.353H20.35V29.28h12.704zM66.112 0h19.255v74.84H66.112zm22.93 48.237c0-16.873 10.92-28.287 27.79-28.287 16.875 0 27.595 11.414 27.595 28.287 0 16.974-10.72 28.287-27.595 28.287-16.87 0-27.79-11.313-27.79-28.287m36.328 0c0-9.33-2.98-15.185-8.736-15.185-5.755 0-8.534 5.856-8.534 15.185 0 9.43 2.78 15.286 8.534 15.286 5.756 0 8.736-5.856 8.736-15.286m21.248 0c0-16.873 10.918-28.287 27.79-28.287C191.28 19.95 202 31.364 202 48.237c0 16.974-10.72 28.287-27.595 28.287-16.87 0-27.79-11.313-27.79-28.287m36.328 0c0-9.33-2.98-15.185-8.736-15.185s-8.535 5.856-8.535 15.185c0 9.43 2.78 15.286 8.534 15.286 5.755 0 8.735-5.856 8.735-15.286m22.733-26.797h17.867v8.038h.297c3.573-6.253 8.435-9.627 16.08-9.627 6.748 0 11.812 3.375 14.393 9.23h.296c4.37-7.047 10.026-9.23 16.576-9.23 12.408 0 17.768 9.132 17.768 21.44v33.548h-18.76V44.664c0-5.46-1.688-9.033-6.45-9.033-4.666 0-7.05 4.37-7.05 10.127v29.08h-18.756V44.665c0-5.46-1.688-9.033-6.45-9.033-4.67 0-7.05 4.37-7.05 10.127v29.08h-18.76V21.44zm106.218 46.45h-.197v6.95H293.83V0h18.76v26.998h.297c3.572-4.664 8.335-7.147 15.186-7.147 13.4 0 21.14 12.11 21.14 28.19 0 18.163-8.436 28.585-22.33 28.585-5.76 0-11.713-2.78-14.99-8.734m18.263-20.048c0-8.637-3.175-14.195-8.836-14.195-5.755 0-9.428 5.558-9.428 14.195 0 8.534 3.673 14.193 9.428 14.193 5.76 0 8.835-5.56 8.835-14.193m21.443.198c0-16.676 11.017-28.287 27-28.287 7.94 0 14.095 2.48 18.76 6.947 6.154 5.955 8.933 15.284 8.73 26.303h-35.828c.795 6.65 3.97 10.024 9.625 10.024 3.277 0 6.155-1.488 7.35-5.06h18.06c-3.174 12.205-12.602 18.36-26.002 18.36-16.575 0-27.695-11.214-27.695-28.287m18.662-5.558h17.073c-.3-6.45-3.874-9.827-8.34-9.827-5.16 0-8.037 3.672-8.733 9.827"></path><path class="logo-bloomberg-business-st1" d="M0 80.19h36.726c6.946 0 12.306 1.688 16.08 4.767 4.266 3.47 6.55 8.633 6.55 14.788 0 7.147-2.877 11.613-8.834 14.393v.296c7.744 2.58 12.207 9.53 12.207 17.966 0 8.04-3.077 14.294-8.14 18.065-4.266 3.075-9.823 4.565-17.168 4.565H0V80.19zm34.94 58.266c4.466 0 7.74-2.68 7.74-7.645 0-5.162-3.574-7.64-7.84-7.64H20.35v15.286h14.59zm-1.886-28.983c3.97 0 6.847-2.186 6.847-6.554 0-4.266-2.976-6.353-6.945-6.353H20.35v12.906h12.704zm66.804 45.558v-6.948h-.297c-3.872 5.558-8.833 8.637-15.782 8.637-12.108 0-18.065-8.338-18.065-20.647V101.63h18.76v30.272c0 6.056 2.285 8.44 6.752 8.44 4.862 0 7.74-3.277 7.74-9.432v-29.28h18.76v53.4H99.858zm20.848-16.874h17.373c.296 4.368 2.877 6.95 7.64 6.95 3.672 0 6.45-1.092 6.45-4.764 0-4.368-5.853-4.664-12.407-5.76-8.534-1.288-18.36-4.067-18.36-17.467 0-10.918 10.62-17.073 23.028-17.073 15.386 0 23.423 6.056 24.118 16.476h-17.665c-.498-3.97-3.277-5.06-6.353-5.06-2.78 0-5.36 1.09-5.36 4.166 0 2.98 4.664 3.775 10.42 4.566 9.23 1.39 20.943 3.573 20.943 18.365 0 12.804-11.017 18.263-24.912 18.263-14.988 0-24.81-6.45-24.914-18.662m52.91-36.525h18.76v53.4h-18.76v-53.4zm0-19.254h18.76v14.986h-18.76V82.376zM215.51 108.975h.295c4.072-5.854 9.234-8.934 16.28-8.934 11.71 0 17.767 8.24 17.767 20.45v34.54h-18.76V124.86c0-5.957-2.183-9.234-7.05-9.234-4.762 0-7.64 3.973-7.64 10.127v29.28h-18.76v-53.4h17.867v7.345zm37.622 19.255c0-16.674 11.017-28.287 26.998-28.287 7.938 0 14.093 2.482 18.757 6.95 6.155 5.952 8.934 15.285 8.736 26.302H271.79c.795 6.65 3.973 10.024 9.63 10.024 3.276 0 6.154-1.49 7.344-5.064h18.065c-3.18 12.21-12.607 18.365-26.008 18.365-16.574 0-27.69-11.217-27.69-28.29m18.658-5.558h17.073c-.297-6.45-3.87-9.827-8.337-9.827-5.163 0-8.04 3.672-8.736 9.827m37.71 15.484h17.37c.3 4.368 2.882 6.95 7.645 6.95 3.672 0 6.45-1.092 6.45-4.764 0-4.368-5.857-4.664-12.407-5.76-8.534-1.288-18.36-4.067-18.36-17.467 0-10.918 10.62-17.073 23.025-17.073 15.384 0 23.424 6.056 24.12 16.476h-17.67c-.494-3.97-3.272-5.06-6.352-5.06-2.778 0-5.355 1.09-5.355 4.166 0 2.98 4.664 3.775 10.42 4.566 9.23 1.39 20.943 3.573 20.943 18.365 0 12.804-11.017 18.263-24.912 18.263-14.99 0-24.816-6.45-24.915-18.662m51.824 0h17.37c.3 4.368 2.88 6.95 7.644 6.95 3.672 0 6.45-1.092 6.45-4.764 0-4.368-5.857-4.664-12.407-5.76-8.533-1.288-18.36-4.067-18.36-17.467 0-10.918 10.62-17.073 23.026-17.073 15.384 0 23.424 6.056 24.12 16.476h-17.67c-.494-3.97-3.272-5.06-6.352-5.06-2.78 0-5.356 1.09-5.356 4.166 0 2.98 4.664 3.775 10.42 4.566 9.23 1.39 20.943 3.573 20.943 18.365 0 12.804-11.016 18.263-24.91 18.263-14.99 0-24.817-6.45-24.916-18.662"></path></svg>