<?xml version="1.0" encoding="UTF-8" standalone="no"?>
<!DOCTYPE svg PUBLIC "-//W3C//DTD SVG 1.1//EN" "http://www.w3.org/Graphics/SVG/1.1/DTD/svg11.dtd">
<svg version="1.1" xmlns="http://www.w3.org/2000/svg" xmlns:xlink="http://www.w3.org/1999/xlink" preserveAspectRatio="xMidYMid meet" viewBox="0 0 689 689" width="689" height="689"><defs><path d="M391.26 314.39C391.26 289.03 391.26 266.08 392.07 258.18C388.53 258.81 370.83 261.98 338.96 267.67L338.96 272.43C342.29 272.89 344.13 273.15 344.5 273.2C351.62 274.79 354.02 278.74 355.57 288.26C357.16 307.26 356.38 408.64 355.57 425.25C369.82 428.42 384.87 430.78 399.93 430.78C441.89 430.78 467.24 404.66 467.24 363.47C467.24 331.03 446.65 307.26 419.75 307.26C408.68 307.26 399.97 309.63 391.26 314.39ZM392 421.33C391.19 410.26 390.41 363.51 391.19 322.36C395.95 320.77 399.12 319.99 403.07 319.99C420.49 319.99 430.01 340.59 430.01 365.9C430.04 397.57 418.16 422.11 401.52 422.11C398.34 422.11 394.39 422.11 392 421.33ZM0 261.35L0 268.48C4.76 268.94 7.4 269.2 7.93 269.25C18.23 270.84 22.18 277.19 23.77 292.21C26.16 320.73 25.35 372.22 23.77 396.72C22.18 411.78 18.23 418.9 7.93 419.68C7.4 419.78 4.76 420.33 0 421.3L0 427.65L89.49 427.65L89.49 421.3C83.78 420.35 80.61 419.82 79.97 419.71C69.68 418.94 65.73 411.81 64.14 396.76C63.33 386.46 62.55 369.82 62.55 349.22C64.45 349.3 79.66 349.92 81.56 350C93.44 350 98.98 359.52 101.34 372.96C101.81 372.96 104.19 372.96 108.46 372.96L108.46 316.78C104.19 316.78 101.81 316.78 101.34 316.78C98.94 330.25 93.41 339.74 81.56 339.74C79.66 339.82 64.45 340.47 62.55 340.55C62.55 313.61 63.33 288.29 64.14 273.24C66.91 273.24 89.08 273.24 91.85 273.24C113.26 273.24 124.33 286.71 132.23 310.47C132.76 310.32 135.4 309.53 140.16 308.11L139.39 261.35L0 261.35Z" id="kaD3TRikr"></path><path d="M243.94 368.23C243.94 402.29 221.76 430.82 182.16 430.82C142.56 430.82 122.78 403.88 122.78 368.23C122.74 334.2 144.92 305.68 184.52 305.68C224.12 305.68 243.94 332.62 243.94 368.23ZM159.98 368.27C159.98 398.34 167.91 422.92 183.75 422.92C201.94 422.92 206.7 399.15 206.7 368.27C206.7 338.15 198.8 313.61 182.16 313.61C164.74 313.61 159.98 337.38 159.98 368.27ZM538.51 305.68C571.76 305.68 587.59 330.22 587.59 362.69C580.22 362.69 521.3 362.69 513.93 362.69C513.12 392 527.4 413.36 555.89 413.36C568.55 413.36 574.9 410.19 582.83 404.66C583.15 405.05 585.69 408.21 586 408.6C578.07 419.68 560.65 430.78 538.51 430.78C502.89 430.82 477.54 405.47 477.54 369.04C477.54 336.57 498.13 305.68 538.51 305.68ZM551.2 353.21C551.2 337.38 548.84 313.61 535.37 313.61C521.9 313.61 514.74 335.79 513.96 354.02C521.41 353.86 547.48 353.29 551.2 353.21ZM645.45 305.68C616.15 305.68 597.92 323.1 597.92 343.69C597.92 364.28 611.36 372.99 630.4 379.34C650.18 386.46 655.75 392 655.75 401.52C655.75 411.04 648.63 419.71 635.93 419.71C620.88 419.71 609.8 411 601.09 387.24C600.73 387.34 598.88 387.87 595.56 388.82C596.04 409.73 596.32 421.34 596.37 423.66C605.89 427.61 623.31 430.78 638.33 430.78C669.22 430.78 689.04 414.95 689.04 390.41C689.04 373.77 680.33 364.28 659.73 356.35C637.55 347.64 629.66 342.1 629.66 331.81C629.66 321.51 636.78 314.39 646.3 314.39C660.54 314.39 670.06 323.1 677.19 344.5C677.56 344.39 679.4 343.87 682.72 342.91L681.88 312.02C667.09 307.79 654.95 305.68 645.45 305.68ZM296.97 333.39C297.02 331.55 297.28 322.31 297.74 305.68L244.71 315.97L244.71 320.73C248.03 321.2 249.88 321.46 250.25 321.51C257.37 322.32 260.54 326.27 261.35 336.57C262.94 355.57 262.13 388.82 261.35 405.47C260.54 414.95 257.41 419.71 250.25 420.52C249.88 420.58 248.03 420.85 244.71 421.33L244.71 427.68L318.37 427.68L318.37 421.33C312.66 420.85 309.49 420.58 308.85 420.52C300.92 419.71 298.55 414.99 297.74 405.47C296.16 390.41 296.16 360.33 296.97 341.33C300.92 335.79 318.34 331.03 334.17 341.33C335.01 339.16 339.25 328.34 346.86 308.85C322.04 306.22 305.41 314.4 296.97 333.39Z" id="a7irWWD6yD"></path></defs><g><g><g><use xlink:href="#kaD3TRikr" opacity="1" fill="#0021ff" fill-opacity="1"></use><g><use xlink:href="#kaD3TRikr" opacity="1" fill-opacity="0" stroke="#000000" stroke-width="1" stroke-opacity="0"></use></g></g><g><use xlink:href="#a7irWWD6yD" opacity="1" fill="#0006f9" fill-opacity="1"></use><g><use xlink:href="#a7irWWD6yD" opacity="1" fill-opacity="0" stroke="#000000" stroke-width="1" stroke-opacity="0"></use></g></g></g></g></svg>