<svg id="logo-tech-crunch" xmlns="http://www.w3.org/2000/svg" viewBox="0 0 114 14.8"><style>.logo-tech-crunch-st0{fill:#9b9b9b;}.logo-tech-crunch-st1{fill:#9b9b9b;}</style><path class="logo-tech-crunch-st0" d="M7.8 4v10.6H3.9V4H0V.6h11.7V4H7.8zM20.8 10.4h-6.2c.1 1.2.8 1.7 1.8 1.7.9 0 1.7-.2 2.7-.7l1.4 2.3c-1.3.8-2.6 1.2-4.3 1.2-3.2 0-4.9-2.2-4.9-5.5 0-3.6 2-5.5 4.8-5.5 2.9 0 4.7 1.9 4.7 5.8v.7zM16 6.5c-.8 0-1.3.6-1.4 1.6h3c-.2-1-.5-1.6-1.6-1.6zM27.5 14.8c-3.1 0-4.9-2-4.9-5.5 0-3.2 1.6-5.4 5-5.4 2 0 3.1.9 4 2.4l-2.5 1.9c-.5-.9-.8-1.4-1.6-1.4-.9 0-1.4.9-1.4 2.6 0 1.7.5 2.5 1.5 2.5.7 0 1.2-.4 1.8-1.4l2.3 1.8c-1.2 1.8-2.4 2.5-4.2 2.5zM39.8 14.6v-6c0-1.4-.5-1.7-1.2-1.7-.8 0-1.2.4-1.2 1.7v6h-3.6V1.4L37.3 0v4.8c.7-.5 1.4-.9 2.7-.9 2.3 0 3.4 1.5 3.4 4.3v6.4h-3.6z"></path><path class="logo-tech-crunch-st1" d="M52 14.8c-4.2 0-6.4-3.1-6.4-7.2 0-4.5 2.6-7.2 6.4-7.2 3.4 0 4.8 1.5 5.8 4.1l-3.5 1.4c-.5-1.3-1-2.1-2.3-2.1-1.6 0-2.3 1.6-2.3 3.8 0 2.1.7 3.8 2.4 3.8 1.2 0 1.7-.7 2.5-2l3.3 1.7c-1 1.9-2.6 3.7-5.9 3.7zM66.7 8c-.5-.5-1-.9-1.7-.9-.9 0-1.4.4-1.4 1.7v5.7H60V4.1h3.6v.8c.6-.6 1.3-1 2.2-1 .8 0 1.3.2 1.7.4L66.7 8zM75.2 14.6v-.7c-.6.5-1.4.9-2.6.9-2.3 0-3.4-1.5-3.4-4.3V4.1h3.6v6c0 1.4.5 1.7 1.2 1.7s1.2-.4 1.2-1.7v-6h3.6v10.5h-3.6zM87.5 14.6v-6c0-1.4-.5-1.7-1.2-1.7-.8 0-1.2.4-1.2 1.7v6h-3.6V4.1h3.6v.7c.7-.5 1.4-.9 2.6-.9 2.3 0 3.4 1.5 3.4 4.3v6.4h-3.6zM98.1 14.8c-3.1 0-4.9-2-4.9-5.5 0-3.2 1.6-5.4 5-5.4 2 0 3.1.9 4 2.4l-2.5 1.9c-.5-.9-.8-1.4-1.6-1.4-.9 0-1.4.9-1.4 2.6 0 1.7.5 2.5 1.5 2.5.7 0 1.2-.4 1.8-1.4l2.3 1.8c-1.2 1.8-2.3 2.5-4.2 2.5zM110.4 14.6v-6c0-1.4-.5-1.7-1.2-1.7-.8 0-1.2.4-1.2 1.7v6h-3.6V1.4L108 0v4.8c.7-.5 1.4-.9 2.6-.9 2.3 0 3.4 1.5 3.4 4.3v6.4h-3.6z"></path></svg>