<svg id="gm-icon-btc" viewBox="0 0 91.6 91.6" width="100%" height="100%"><path class="gm-icon-btc-st0" d="M47.1 32.2l-2.5 10c2.8.7 11.5 3.6 12.9-2.1 1.5-5.9-7.5-7.2-10.4-7.9zM43.4 47.2l-2.7 11c3.4.8 13.8 4.2 15.4-2 1.5-6.5-9.3-8.2-12.7-9z"></path><path class="st0" d="M45.8 0C20.5 0 0 20.5 0 45.8c0 25.3 20.5 45.8 45.8 45.8 25.3 0 45.8-20.5 45.8-45.8C91.6 20.5 71.1 0 45.8 0zm21.6 40.1c-.7 4.4-3.1 6.6-6.4 7.3 4.5 2.3 6.8 5.9 4.6 12.1-2.7 7.7-9.1 8.3-17.6 6.7l-2 8.4-5-1.2 2-8.2c-1.3-.3-2.6-.7-4-1l-2 8.2-5-1.2 2.1-8.3-3.6-.9-6.5-1.7 2.5-5.7s3.7 1 3.6.9c1.4.4 2-.6 2.3-1.2l3.3-13.1c.2 0 .4.1.5.1-.2-.1-.4-.1-.5-.2l2.3-9.3c.1-1.1-.3-2.4-2.3-2.9.1-.1-3.6-.9-3.6-.9l1.3-5.3 6.9 1.7c1 .3 2.1.5 3.2.8l2-8.2 5 1.2-2 8c1.3.3 2.7.6 4 .9l2-8 5 1.2-2 8.2c6.2 2.3 10.8 5.6 9.9 11.6z"></path></svg>