<?xml version="1.0" encoding="UTF-8" standalone="no"?>
<!DOCTYPE svg PUBLIC "-//W3C//DTD SVG 1.1//EN" "http://www.w3.org/Graphics/SVG/1.1/DTD/svg11.dtd">
<svg version="1.1" xmlns="http://www.w3.org/2000/svg" xmlns:xlink="http://www.w3.org/1999/xlink" preserveAspectRatio="xMidYMid meet" viewBox="0 0 689 689" width="689" height="689"><defs><path d="M616.36 339.72C631.28 339.72 639.57 339.72 641.23 339.72C642.19 342.86 645.47 346.01 651.61 346.01C659.94 346.01 662.82 340.82 662.82 333.16C662.82 332.8 662.82 330.98 662.82 327.7C662.49 327.7 662.3 327.7 662.27 327.7C658.17 332.48 652.7 336.03 644.64 336.03C628.8 336.03 614.99 324.28 614.99 301.33C614.99 280.29 626.34 263.9 643.41 263.9C653.25 263.9 659.26 267.86 663.23 274.14C663.25 274.14 663.39 274.14 663.63 274.14L663.63 266.08L688.23 266.08C688.23 304.28 688.23 325.5 688.23 329.75C688.23 341.5 684.13 350.65 677.98 356.12C671.56 361.85 662.4 364.18 652.02 364.18C632.48 364.18 618.82 356.12 616.36 339.72M663.9 300.1C663.9 290.95 659.54 283.57 652.02 283.57C644.78 283.57 640.13 290.13 640.13 300.1C640.13 309.94 644.78 317.04 652.02 317.04C659.54 317.04 663.9 309.81 663.9 300.1M587.94 278.66C593.27 268.41 600.24 264.58 609.12 264.58C611.17 264.58 612.54 264.86 613.35 265.27C613.35 266.77 613.35 274.28 613.35 287.81C613.03 287.81 612.84 287.81 612.81 287.81C597.64 285.08 588.76 292.32 588.76 308.85C588.76 310.9 588.76 321.14 588.76 339.59L562.94 339.59L562.94 266.08L587.53 266.08L587.53 278.65C587.78 278.66 587.92 278.66 587.94 278.66ZM50.55 236.57C60.11 236.57 67.49 238.9 72.69 243.13C78.56 247.91 81.7 255.02 81.7 263.49C81.7 273.32 77.74 279.47 69.54 283.3C69.54 283.34 69.54 283.67 69.54 283.71C80.2 287.26 86.34 296.82 86.34 308.44C86.34 319.5 82.11 328.11 75.14 333.3C69.27 337.54 61.62 339.59 51.51 339.59C48.07 339.59 30.91 339.59 0 339.59L0 236.57C30.33 236.57 47.18 236.57 50.55 236.57ZM58.75 306.25C58.75 299.14 53.83 295.73 47.96 295.73C46.63 295.73 39.98 295.73 28.01 295.73L28.01 316.77L48.09 316.77C55.2 314.31 58.75 310.8 58.75 306.25ZM54.92 267.86C54.92 261.99 50.83 259.12 45.36 259.12C44.21 259.12 38.42 259.12 28.01 259.12L28.01 276.88L45.5 276.88C51.78 274.87 54.92 271.87 54.92 267.86ZM91 236.57L117.5 236.57L117.5 339.59L91 339.59L91 236.57ZM122.56 302.97C122.56 279.74 137.59 264.03 160.81 264.03C184.04 264.03 198.8 279.74 198.8 302.97C198.8 326.33 184.04 341.91 160.81 341.91C137.59 341.91 122.56 326.33 122.56 302.97M172.57 302.97C172.57 290.13 168.46 282.07 160.54 282.07C152.62 282.07 148.79 290.13 148.79 302.97C148.79 315.95 152.62 324.01 160.54 324.01C168.46 324.01 172.57 315.95 172.57 302.97M201.81 302.97C201.81 279.74 216.84 264.03 240.06 264.03C263.29 264.03 278.04 279.74 278.04 302.97C278.04 326.33 263.29 341.91 240.06 341.91C216.84 341.91 201.81 326.33 201.81 302.97M251.81 302.97C251.81 290.13 247.71 282.07 239.79 282.07C231.87 282.07 228.04 290.13 228.04 302.97C228.04 315.95 231.87 324.01 239.79 324.01C247.71 324.01 251.81 315.95 251.81 302.97M307.69 266.08L307.69 277.15C307.94 277.15 308.08 277.15 308.1 277.15C313.02 268.54 319.71 263.9 330.24 263.9C339.52 263.9 346.5 268.54 350.05 276.6C350.09 276.6 350.41 276.6 350.46 276.6C356.47 266.9 364.26 263.9 373.27 263.9C390.35 263.9 397.73 276.47 397.73 293.41C397.73 296.49 397.73 311.88 397.73 339.59L371.91 339.59C371.91 314.67 371.91 300.82 371.91 298.05C371.91 290.54 369.58 285.62 363.03 285.62C356.61 285.62 353.32 291.63 353.32 299.56C353.32 302.23 353.32 315.57 353.32 339.58L327.51 339.58C327.51 314.67 327.51 300.82 327.51 298.05C327.51 290.54 325.18 285.62 318.63 285.62C312.2 285.62 308.92 291.63 308.92 299.56C308.92 302.23 308.92 315.57 308.92 339.59L283.1 339.59L283.1 266.08L307.69 266.08ZM429.31 330.02L429.03 330.02L429.03 339.59L404.44 339.59L404.44 236.57L430.27 236.57L430.27 273.74C430.51 273.74 430.65 273.74 430.68 273.74C435.59 267.32 442.15 263.9 451.58 263.9C470.02 263.9 480.68 280.57 480.68 302.7C480.68 327.7 469.06 342.05 449.94 342.05C442.01 342.05 433.82 338.22 429.31 330.02M454.45 302.43C454.45 290.54 450.07 282.89 442.28 282.89C434.36 282.89 429.31 290.54 429.31 302.43C429.31 314.18 434.36 321.96 442.28 321.96C450.21 321.96 454.44 314.31 454.44 302.43M483.96 302.7C483.96 279.75 499.12 263.77 521.12 263.77C532.05 263.77 540.52 267.18 546.95 273.33C555.42 281.52 559.24 294.37 558.96 309.53C554.03 309.53 514.58 309.53 509.65 309.53C510.74 318.69 515.11 323.33 522.89 323.33C527.41 323.33 531.37 321.28 533.01 316.37C535.5 316.37 555.38 316.37 557.87 316.37C553.5 333.16 540.52 341.64 522.08 341.64C499.27 341.64 483.96 326.2 483.96 302.7M509.65 295.05C523.75 295.05 531.58 295.05 533.15 295.05C532.73 286.17 527.81 281.52 521.67 281.52C514.56 281.52 510.6 286.58 509.65 295.05" id="cpMK4009h"></path><path d="M50.55 346.95C60.11 346.95 67.49 349.27 72.69 353.51C78.56 358.29 81.7 365.4 81.7 373.87C81.7 383.71 77.74 389.85 69.54 393.68C69.54 393.72 69.54 394.05 69.54 394.09C80.2 397.64 86.34 407.2 86.34 418.82C86.34 429.88 82.11 438.49 75.14 443.68C69.27 447.91 61.62 449.97 51.51 449.97C48.07 449.97 30.91 449.97 0 449.97L0 346.95C30.33 346.95 47.18 346.95 50.55 346.95ZM58.75 416.63C58.75 409.52 53.83 406.11 47.96 406.11C46.63 406.11 39.98 406.11 28.01 406.11L28.01 427.15L48.09 427.15C55.2 424.69 58.75 421.19 58.75 416.63ZM54.92 378.24C54.92 372.36 50.83 369.49 45.36 369.49C44.21 369.49 38.42 369.49 28.01 369.49L28.01 387.26L45.5 387.26C51.78 385.25 54.92 382.25 54.92 378.24ZM137.45 440.4C137.2 440.4 137.07 440.4 137.04 440.4C131.71 448.05 124.88 452.29 115.32 452.29C98.65 452.29 90.45 440.81 90.45 423.87C90.45 420.71 90.45 404.91 90.45 376.46L116.27 376.46C116.27 401.46 116.27 415.35 116.27 418.13C116.27 426.47 119.42 429.75 125.57 429.75C132.26 429.75 136.22 425.24 136.22 416.77C136.22 414.08 136.22 400.64 136.22 376.46L162.04 376.46L162.04 449.97L137.45 449.97L137.45 440.4ZM166.15 426.74C180.49 426.74 188.47 426.74 190.06 426.74C190.47 432.75 194.02 436.31 200.58 436.31C205.63 436.31 209.45 434.8 209.45 429.75C209.45 423.74 201.4 423.33 192.38 421.82C180.63 420.05 167.1 416.22 167.1 397.78C167.1 382.75 181.72 374.28 198.8 374.28C219.98 374.28 231.04 382.61 232 396.96C229.57 396.96 210.12 396.96 207.68 396.96C207 391.49 203.17 389.99 198.94 389.99C195.11 389.99 191.56 391.49 191.56 395.73C191.56 399.83 197.98 400.92 205.9 402.01C218.61 403.92 234.73 406.93 234.73 427.29C234.73 444.91 219.57 452.43 200.44 452.43C179.81 452.43 166.29 443.55 166.15 426.74M264.8 376.47L264.8 449.97L238.98 449.97L238.98 376.47L264.8 376.47ZM264.8 349.96L264.8 370.59L238.98 370.59L238.98 349.96L264.8 349.96ZM297.05 386.57C302.65 378.51 309.76 374.28 319.45 374.28C335.57 374.28 343.91 385.62 343.91 402.42C343.91 405.59 343.91 421.44 343.91 449.97L318.09 449.97C318.09 425.05 318.09 411.21 318.09 408.44C318.09 400.24 315.08 395.73 308.38 395.73C301.83 395.73 297.87 401.2 297.87 409.67C297.87 412.35 297.87 425.79 297.87 449.97L272.05 449.97L272.05 376.47L296.64 376.47L296.64 386.58C296.88 386.57 297.02 386.57 297.05 386.57ZM348.42 413.08C348.42 390.13 363.59 374.14 385.59 374.14C396.51 374.14 404.98 377.56 411.4 383.71C419.88 391.9 423.7 404.75 423.43 419.91C418.5 419.91 379.04 419.91 374.11 419.91C375.2 429.06 379.58 433.71 387.36 433.71C391.87 433.71 395.83 431.66 397.47 426.74C399.96 426.74 419.85 426.74 422.34 426.74C417.96 443.54 404.98 452.02 386.54 452.02C363.72 452.02 348.42 436.58 348.42 413.08M374.11 405.43C388.21 405.43 396.04 405.43 397.61 405.43C397.2 396.55 392.28 391.9 386.13 391.9C379.02 391.9 375.06 396.95 374.11 405.43M426.01 426.74C440.36 426.74 448.33 426.74 449.92 426.74C450.33 432.75 453.89 436.31 460.44 436.31C465.5 436.31 469.32 434.8 469.32 429.75C469.32 423.74 461.26 423.33 452.24 421.82C440.5 420.05 426.97 416.22 426.97 397.78C426.97 382.75 441.59 374.28 458.67 374.28C479.84 374.28 490.91 382.61 491.87 396.96C489.43 396.96 469.98 396.96 467.54 396.96C466.86 391.49 463.04 389.99 458.8 389.99C454.98 389.99 451.43 391.49 451.43 395.72C451.43 399.83 457.85 400.92 465.77 402.01C478.48 403.92 494.6 406.93 494.6 427.29C494.6 444.91 479.43 452.43 460.31 452.43C439.68 452.43 426.15 443.55 426.01 426.74M497.35 426.74C511.69 426.74 519.66 426.74 521.26 426.74C521.67 432.75 525.22 436.31 531.78 436.31C536.83 436.31 540.66 434.8 540.66 429.75C540.66 423.74 532.59 423.33 523.58 421.82C511.83 420.05 498.31 416.22 498.31 397.78C498.31 382.75 512.93 374.28 530 374.28C551.18 374.28 562.24 382.61 563.2 396.96C560.77 396.96 541.31 396.96 538.88 396.96C538.2 391.49 534.38 389.99 530.14 389.99C526.31 389.99 522.76 391.49 522.76 395.72C522.76 399.83 529.18 400.92 537.11 402.01C549.81 403.92 565.93 406.93 565.93 427.29C565.93 444.91 550.77 452.43 531.65 452.43C511.01 452.43 497.49 443.55 497.35 426.74" id="c1cSo6BWmM"></path></defs><g><g><g><use xlink:href="#cpMK4009h" opacity="1" fill="#000000" fill-opacity="1"></use><g><use xlink:href="#cpMK4009h" opacity="1" fill-opacity="0" stroke="#000000" stroke-width="1" stroke-opacity="0"></use></g></g><g><use xlink:href="#c1cSo6BWmM" opacity="1" fill="#002aff" fill-opacity="1"></use><g><use xlink:href="#c1cSo6BWmM" opacity="1" fill-opacity="0" stroke="#000000" stroke-width="1" stroke-opacity="0"></use></g></g></g></g></svg>