<svg id="logo-cnbc" xmlns="http://www.w3.org/2000/svg" width="700.806" height="560.091" viewBox="-66.809 -112.76 700.806 560.091"><style>.logo-cnbc-st0{fill:none;}.logo-cnbc-st1{fill:#9b9b9b;}.logo-cnbc-st2{fill:#9b9b9b;}.logo-cnbc-st3{fill:#9b9b9b;}.logo-cnbc-st4{fill:#9b9b9b;}.logo-cnbc-st5{fill:#9b9b9b;}.logo-cnbc-st6{fill:#9b9b9b;}.logo-cnbc-st7{fill:#9b9b9b;}</style><path class="logo-cnbc-st0" d="M283.57-59.3c-10.925-27.28-37.54-56.74-87.388-52.692-63.5 6.903-83.287 67.756-73.69 104.06C97.203-25.06 54.2-32.59 16.665-.437c-48.464 48.58-22.54 114.28 4.1 130.04-29.36-2.718-75.767 17.122-86.033 69.022-10.92 64.438 38.202 102.003 86.035 102.003h530.413c55.312 0 86-47.852 82.558-92.98-5.426-58.896-59.32-81.493-88.72-76.65 24.562-13.705 57.365-78.077 7.485-128.683-39.594-37.662-90.07-23.958-107.817-7.532 9.567-31.462-6.122-96.498-70.34-106.784-4.44-.496-8.715-.762-12.788-.762-49.023.007-71.067 35.843-77.985 53.46"></path><path class="logo-cnbc-st1" d="M25.497 9.818c-28.003 25.35-38.195 82.79 12.286 116.368l201.39 138.17L141.527 40.64c-20.462-52.79-76.44-64.303-116.03-30.824"></path><path class="logo-cnbc-st2" d="M198.857-98.95C166.12-98.285 116.964-59.3 138.84.226l100.995 238.186 35.49-250.526c8.21-62.25-38.898-90.986-76.468-86.838"></path><path class="logo-cnbc-st3" d="M291.084-21.668h19.097s10.2 0 11.587 4.81c-7.515 6.138-27.97 6.907-25.254 39.688l32.103 215.55L428.92-.433c20.518-53.322-22.547-97.854-60.748-99.215-1.784-.128-3.575-.232-5.43-.232-34.286 0-73.578 24.92-71.658 78.212"></path><path class="logo-cnbc-st4" d="M424.883 42.67L330.01 263.7l201.333-138.898c46.41-32.918 38.925-85.546 12.946-111.56C533.397.998 513.4-8.46 492.217-8.46c-25.026-.005-51.81 13.27-67.335 51.13"></path><path class="logo-cnbc-st5" d="M508.8 156.25L319.727 288.32h232.806c47.763 0 78.457-49.246 64.812-94.438-9.14-28.406-36.177-50.704-67.56-50.736-13.21.005-27.22 3.984-40.983 13.107"></path><path class="logo-cnbc-st6" d="M20.072 288.318h229.37L60.32 156.25c-43.692-28.07-92.82-11.645-110.556 34.94-15.034 53.327 22.503 97.128 70.308 97.128"></path><path class="logo-cnbc-st7" d="M-66.07 383.898c0 22.492 18.388 63.433 88.596 63.433 64.73 0 85.174-29.7 85.174-43.32H57.587s-2.38 17.993-30.65 17.993c-28.286 0-35.936-23.61-35.936-37.264C-9 371.137-1.35 348.8 26.94 348.8c28.27 0 30.65 15.665 30.65 15.665H107.7c0-13.635-15-42.918-85.174-42.918-70.208 0-88.595 43.6-88.595 62.348M459.487 383.898c0 22.492 18.406 63.433 88.595 63.433 64.724 0 85.176-29.7 85.176-43.32H583.18s-2.39 17.993-30.667 17.993c-28.29 0-35.948-23.61-35.948-37.264 0-13.602 7.658-35.938 35.948-35.938 28.276 0 30.667 15.665 30.667 15.665h50.078c0-13.635-14.984-42.918-85.176-42.918-70.188 0-88.595 43.6-88.595 62.348M244.66 323.65v76.14l-58.322-76.14h-65.606v120.6h44.977v-77.016l57.3 77.016h66.63v-120.6h-44.98M388.786 415.438v.16H351.31v-22.145h37.476v.072c8.002 0 14.47 4.918 14.47 10.974 0 6.04-6.468 10.938-14.47 10.938m-37.132-68.333h36.11v.05c6.118 0 11.08 4.026 11.08 8.98 0 4.973-4.962 8.963-11.08 8.963v.054h-36.11v-18.047zm73.94 33.03c8.187 0 25.307-9.506 25.307-27.92 0-26.22-48.826-28.566-56.316-28.566h-89.962v120.6h89.962c43.268 0 60.65-13.67 60.65-36.495s-29.64-27.62-29.64-27.62z"></path></svg>