<svg id="gm-icon-dashboard-power" viewBox="0 0 161.5 118.3" width="100%" height="100%">
            <path class="gm-icon-dashboard-power-st0" d="M129.8 47.3c-.3-.3-.7-.5-1.2-.5-.1 0-.3 0-.4.1l-13.7 3.4 5.9-16c.1-.2.2-.4.2-.6 0-.8-.7-1.5-1.6-1.5h-11.3c-.7 0-1.3.5-1.5 1.1l-6.9 28.5c-.1.5 0 1 .4 1.3.3.2.7.4 1.1.4h.4l14-3.5-6.8 27.9c-.2.7.3 1.4 1 1.7.2 0 .3.1.5.1.6 0 1.2-.3 1.4-.9l18.7-40c.3-.5.2-1.1-.2-1.5z"></path>
            <path class="gm-icon-dashboard-power-st0" d="M112.2 9.8h-.2V2c0-1.1-.9-2-2-2H2C.9 0 0 .9 0 2v12c0 1.1.9 2 2 2h86.3c-2.3 1.3-4.6 2.8-6.7 4.5H2c-1.1 0-2 .9-2 2v12c0 1.1.9 2 2 2h66.4c-.8 1.4-1.4 2.9-2 4.5H2c-1.1 0-2 .9-2 2v12c0 1.1.9 2 2 2h60.9c0 .7-.1 1.5-.1 2.2 0 .7 0 1.5.1 2.2H2c-1.1 0-2 .9-2 2v12c0 1.1.9 2 2 2h64.4c.6 1.5 1.3 3 2 4.5H2c-1.1 0-2 .9-2 2v12c0 1.1.9 2 2 2h79.6c2.1 1.7 4.3 3.2 6.7 4.5H2c-1.1 0-2 .9-2 2v12c0 1.1.9 2 2 2h108c1.1 0 2-.9 2-2v-7.8h.2c27.2 0 49.3-22.1 49.3-49.3 0-27.4-22.1-49.5-49.3-49.5zm-103.3.7c-1.4 0-2.5-1.1-2.5-2.5s1.1-2.5 2.5-2.5 2.5 1.1 2.5 2.5-1.1 2.5-2.5 2.5zm77.2 0H25.9v-5H86v5zM8.9 51.4c-1.4 0-2.5-1.1-2.5-2.5s1.1-2.5 2.5-2.5 2.5 1.1 2.5 2.5-1.1 2.5-2.5 2.5zm0 20.5c-1.4 0-2.5-1.1-2.5-2.5s1.1-2.5 2.5-2.5 2.5 1.1 2.5 2.5c0 1.3-1.1 2.5-2.5 2.5zm17 0v-5h37.5c.3 1.7.6 3.4 1.1 5H25.9zm37.6-20.5H25.9v-5h38.6c-.4 1.6-.8 3.3-1 5zM8.9 112.8c-1.4 0-2.5-1.1-2.5-2.5s1.1-2.5 2.5-2.5 2.5 1.1 2.5 2.5-1.1 2.5-2.5 2.5zm77.2 0H25.9v-5H86v5zm17-107.3c1.4 0 2.5 1.1 2.5 2.5s-1.1 2.5-2.5 2.5-2.5-1.1-2.5-2.5 1.1-2.5 2.5-2.5zM8.9 31c-1.4 0-2.5-1.1-2.5-2.5S7.5 26 8.9 26s2.5 1.1 2.5 2.5c0 1.3-1.1 2.5-2.5 2.5zm17 0v-5h49.8c-1.4 1.6-2.8 3.2-4 5H25.9zm-17 61.3c-1.4 0-2.5-1.1-2.5-2.5s1.1-2.5 2.5-2.5 2.5 1.1 2.5 2.5-1.1 2.5-2.5 2.5zm17 0v-5h45.8c1.2 1.8 2.5 3.4 4 5H25.9zm77.2 20.5c-1.4 0-2.5-1.1-2.5-2.5s1.1-2.5 2.5-2.5 2.5 1.1 2.5 2.5-1.1 2.5-2.5 2.5zm9.1-8.3c-25 0-45.3-20.3-45.3-45.3 0-25 20.3-45.3 45.3-45.3 25 0 45.3 20.3 45.3 45.3 0 24.9-20.3 45.3-45.3 45.3z"></path>
        </svg>