<svg id="logo-forbes" xmlns="http://www.w3.org/2000/svg" viewBox="0 0 1954 489.6"><style>.logo-forbes-st0{display:none;fill:#9b9b9b;}.logo-forbes-st1{fill:#9b9b9b;}</style><path class="logo-forbes-st0" d="M-273-202.7h2500v969.5H-273v-969.5z"></path><path class="logo-forbes-st1" d="M1190.4 139.2c-31.4 0-56.1 6.7-80.8 20.2 0-71.9 0-137 2.3-159.4L961.3 26.9v13.5l15.7 2.2c20.2 4.5 27 15.7 31.4 42.7 4.5 53.9 2.3 341.4 0 388.5 40.4 9 83.1 15.7 125.8 15.7 119 0 190.9-74.1 190.9-190.9 0-92-58.4-159.4-134.7-159.4zm-51.7 325.7c-9 0-20.2 0-27-2.2-2.3-31.4-4.5-164-2.3-280.7 13.5-4.5 22.5-6.7 33.7-6.7 49.4 0 76.4 58.4 76.4 130.2.1 89.8-33.6 159.4-80.8 159.4zM395.3 9H0v20.2l22.5 2.2c29.2 4.5 40.4 22.5 44.9 65.1 6.8 80.9 4.5 226.9 0 296.4-4.5 42.7-15.7 62.9-44.9 65.1L0 462.6v18h253.8v-18l-27-4.5c-29.2-2.2-40.4-22.4-44.9-65.1-2.3-29.2-4.5-76.4-4.5-134.8l53.9 2.2c33.7 0 49.4 27 56.1 65.1h20.2V166.2h-20.2c-6.8 38.2-22.5 65.1-56.1 65.1l-53.9 2.3c0-76.4 2.2-148.2 4.5-190.9h78.6c60.7 0 92.1 38.2 114.5 105.6l22.5-6.7L395.3 9z"></path><path class="logo-forbes-st1" d="M523.3 134.7c112.3 0 168.5 76.4 168.5 177.4 0 96.6-62.9 177.5-175.2 177.5-112.3 0-168.4-76.4-168.4-177.5-.1-96.5 62.8-177.4 175.1-177.4zm-6.7 22.5c-49.4 0-62.9 67.4-62.9 155 0 85.3 22.5 155 67.4 155 51.6 0 65.1-67.4 65.1-155 0-85.4-22.4-155-69.6-155zm837.7 157.2c0-92.1 58.4-179.7 172.9-179.7 94.3 0 139.2 69.6 139.2 161.7h-208.9c-2.3 83.1 38.2 143.7 119 143.7 35.9 0 53.9-9 76.4-24.7l9 11.2c-22.5 31.4-71.9 62.9-134.7 62.9-101 .1-172.9-71.8-172.9-175.1zm103.3-42.6l105.6-2.3c0-44.9-6.7-112.3-44.9-112.3-38.2 0-58.5 62.9-60.7 114.6zm476.2-119.1c-27-11.2-62.9-18-103.3-18-83.1 0-134.8 49.4-134.8 107.8s38.1 83.1 92.1 101.1c56.1 20.2 71.9 35.9 71.9 62.9s-20.2 51.6-56.2 51.6c-42.7 0-74.1-24.7-98.8-92.1l-15.7 4.5 2.3 98.8c27 11.2 76.4 20.2 119 20.2 87.6 0 143.8-44.9 143.8-114.5 0-47.2-24.7-74.1-83.1-96.6-62.9-24.7-85.3-40.4-85.3-69.6 0-29.2 20.2-49.4 47.2-49.4 40.4 0 67.4 24.7 87.6 85.4l15.7-4.5-2.4-87.6zm-950.1-9c-38.2-22.4-105.6-11.2-141.5 69.6l2.2-78.6L694 163.9v13.5l15.7 2.2c20.2 2.3 29.2 13.5 31.5 42.7 4.5 53.9 2.2 148.2 0 195.4-2.3 26.9-11.2 40.4-31.5 42.7l-15.7 2.3v18h208.9v-18l-27-2.3c-22.5-2.3-29.2-15.7-31.5-42.7-4.5-42.7-4.5-128-2.2-181.9 11.2-15.7 60.6-29.2 105.5 0l36-92.1z"></path></svg>