<?xml version="1.0" encoding="utf-8"?>
<!-- Generator: Adobe Illustrator 17.0.1, SVG Export Plug-In . SVG Version: 6.00 Build 0)  -->
<!DOCTYPE svg PUBLIC "-//W3C//DTD SVG 1.1//EN" "http://www.w3.org/Graphics/SVG/1.1/DTD/svg11.dtd">
<svg id="logo-the-economist" xmlns="http://www.w3.org/2000/svg" viewBox="0 0 102 52"><style>.logo-the-economist-st0{fill:#9b9b9b;}</style><path class="logo-the-economist-st0" d="M-.017 26.003v-26h102v52h-102v-26zm22 11.4c.5-.2 1.1-.6 1.5-1l.3-.3-.1-.3-.1-.3-.3.3c-.7.6-1.5.9-2.2.7-1.1-.3-1.8-1.7-1.8-4s.6-3.4 2-3.4c.8 0 1.2.4 1.4 1.5.1.4.1.5.3.4.1 0 .3-.1.4-.1.2 0 .2 0 .2-1.1v-1.1l-.7-.2c-1-.2-2.2-.3-2.9-.1-1.9.5-3 2.1-3 4.5 0 2 .8 3.5 2.1 4.2.9.5 2 .6 2.9.3zm9.2 0c.7-.2 1.1-.4 1.6-.9 1.1-1 1.7-2.7 1.4-4.4-.4-2.3-2-3.7-4.3-3.7-2.6 0-4.3 1.8-4.3 4.6 0 2.1.9 3.7 2.6 4.3.9.3 2 .3 3 .1zm-1.9-.8c-1-.6-1.4-2-1.4-4.3 0-1.5.2-2.2.6-2.7.9-1.1 2.4-.6 3.1.9.4.8.5 1.6.5 2.8 0 1.7-.4 2.8-1.2 3.3-.5.3-1.2.3-1.6 0zm24.2.8c1-.2 2-1 2.5-1.8.5-.9.8-2.3.6-3.4-.4-2.2-1.9-3.6-4-3.7-1.5-.1-2.6.3-3.4 1.2-.8.8-1.2 2-1.2 3.4 0 3.1 2.3 5 5.5 4.3zm-1.8-.7c-1-.5-1.5-2-1.5-4.3 0-1.7.3-2.5 1-3 .4-.3 1.1-.3 1.6-.1 1.1.5 1.7 2 1.7 4.1 0 1.7-.3 2.8-1 3.3-.5.2-1.3.2-1.8 0zm34.6.6c.7-.2 1.4-.9 1.6-1.6.2-.5.2-1.4.1-1.7-.3-.7-.9-1.3-2.6-2.5-.4-.3-.8-.6-.9-.8-.2-.4-.2-.9 0-1.2.3-.4 1-.6 1.6-.5.4.1.6.3.8 1 .1.3.2.5.3.5h.8v-.8c0-.6 0-.8-.1-.9-.1-.1-.5-.2-1-.3-2.6-.5-4 .4-4 2.5 0 1.2.4 1.7 2.1 2.8 1.4 1 1.9 1.6 1.6 2.2-.2.5-.6.6-1.3.6-.6 0-.7 0-.9-.2-.1-.1-.3-.5-.5-.8-.2-.6-.4-.7-.9-.5-.2.1-.2.1-.2.9 0 .6 0 .9.1.9s.4.2.7.2c1.1.5 1.8.5 2.7.2zm8.6-.1c.5-.2.5-.2.6-.5 0-.3 0-.3-.1-.2-.1 0-.4.1-.7.1-.7.1-1.1-.1-1.4-.6-.2-.3-.2-.6-.2-3.3v-2.9h2l.1-.3c0-.1.1-.4.1-.5l.1-.2h-2.2v-2.4h-.8l-.1.4c-.1.5-.5 1.4-.9 1.7-.3.2-.8.4-1.2.4-.2 0-.2 0-.2.5v.5h1v2.9c0 3.2.1 3.5.6 4.1.1.2.4.4.7.5.4.2.5.2 1.3.2.5-.2.9-.2 1.3-.4zm-80.8.2l.3-.1.2-1.2c.1-.7.2-1.3.2-1.5 0-.2 0-.2-.4-.2s-.4 0-.4.3c0 .5-.3 1.1-.6 1.4-.4.4-.8.5-2 .5-1.6 0-1.5.2-1.5-2.8v-2.4h1.2c1.6.1 1.9.2 2 1.2.1.3.1.3.3.3h.3v-4h-.3c-.3 0-.3 0-.4.6-.1.3-.2.6-.3.7-.3.3-1.3.4-2.4.3l-.5-.1v-4.6h1.1c.6 0 1.3.1 1.5.1.5.1.7.5.8 1.2l.1.5h.6v-2.6h-8.2v.2c0 .2 0 .2.5.3 1.1.2 1.1 0 1.1 5.7 0 5.2 0 5.3-.5 5.6-.1.1-.5.2-.7.2-.4.1-.4.1-.4.3v.2h6.8c.7-.1 1.4-.1 1.6-.1zm26.7-.2c0-.2-.1-.3-.5-.4-.5-.2-.6-.4-.6-3.2 0-2.7 0-2.9.5-3.5.4-.4.8-.6 1.3-.6 1.3 0 1.6.9 1.5 4.7-.1 2.3-.1 2.5-.7 2.6-.3.1-.3.1-.3.3v.2h4.6v-.2c0-.2-.1-.2-.4-.3-.6-.1-.8-.3-.9-.7 0-.2-.1-1.5-.1-3 0-2.2 0-2.7-.2-3.1-.2-.6-.6-1.1-1.2-1.5-.4-.2-.6-.3-1.3-.3-1.1 0-1.5.2-2.3.9l-.5.5v-.4c0-.2 0-.6-.1-.8l-.1-.3-.6.1c-.5.1-2.2.3-2.6.3 0 0-.1.1-.1.2 0 .2 0 .2.3.2.5 0 .9.2 1 .6.1.5.1 6.1 0 6.6-.1.4-.4.5-.9.5-.3 0-.3 0-.3.2v.2h2.3c1.7.3 2.2.3 2.2.2zm22.4-.1c0-.1-.1-.2-.4-.3-.2-.1-.4-.2-.5-.3-.1-.1-.1-.9-.1-2.7 0-2.5 0-2.6.2-3 .4-.9 1.1-1.3 1.9-1.2.5.1.8.4 1 1 .1.4.2.9.2 3.1 0 1.9 0 2.7-.1 2.8-.1.1-.3.3-.5.3-.3.1-.4.2-.4.3v.2h4.2v-.2c0-.2-.1-.2-.3-.3-.6-.1-.6-.1-.7-3.1v-2.7l.2-.5c.3-.6.8-.9 1.4-1 .7-.1 1 .1 1.3.7.2.4.2.5.2 3.3 0 2.7 0 2.9-.2 3.1-.1.1-.3.2-.5.2s-.3.1-.3.3v.2h4.6v-.2c0-.2-.1-.2-.4-.3-.5-.1-.8-.3-.9-.7-.1-.2-.1-1.4-.1-2.9 0-2.8 0-3.1-.5-3.9-.2-.3-.4-.5-.8-.7-.4-.2-.6-.3-1.3-.3-.7 0-.9 0-1.3.3-.3.1-.8.5-1.1.8l-.5.5-.3-.5c-.2-.3-.5-.6-.8-.8-.4-.2-.5-.3-1.3-.3-1 0-1.5.2-2.3.9l-.5.5v-.6c0-.3 0-.7-.1-.8 0-.2-.1-.2-.6-.1s-2.2.3-2.6.3c0 0-.1.1-.1.2 0 .2 0 .2.3.2.5 0 .8.2 1 .5.2.4.2 6.2 0 6.7-.1.3-.4.5-.9.5-.3 0-.3 0-.3.2v.2H63.183v.1zm17.4.1c0-.1-.1-.2-.1-.2s-.2-.1-.4-.1c-.6-.1-.8-.3-.9-1.2 0-.4-.1-2.3-.1-4.1v-3.3l-.7.1c-.4.1-1.1.2-1.7.2s-1.1.1-1.1.1c-.1.1.1.4.3.4.4 0 .8.2.9.4.2.3.3 3.8.2 5.5-.1 1.5-.2 1.6-.8 1.7-.4.1-.5.1-.5.4 0 .1.5.1 2.5.1 2.2.1 2.4.1 2.4 0zm-2-10.7c.9-.5.8-1.9-.2-2.2-1.3-.5-2.2 1.4-1 2.2.4.2.9.2 1.2 0zm-16-4.7c.5-.1 1.1-.5 1.6-.9.5-.5.6-.6.5-.9l-.1-.2-.4.4c-1.1 1-2.4 1.1-3.3.3-.5-.5-1-1.7-1-2.7v-.4h5l-.1-.7c-.1-.8-.2-1.3-.6-1.9-.6-.9-1.5-1.3-2.8-1.2-1.7.1-2.9 1.3-3.3 3.1-.2.8-.2 1.6 0 2.3.2.8.4 1.2 1 1.8.8 1 2.1 1.4 3.5 1zm-2.8-5.5c.1-.9.3-1.3.7-1.7.3-.3.4-.3.8-.3s.6.1.8.2c.3.2.8 1 .9 1.6l.1.4-.3.1c-.2 0-.9.1-1.6.1l-1.3.1-.1-.5zm-14.6 5.2c0-.2 0-.2-.3-.3-.5 0-.8-.2-1-.5-.1-.3-.2-.7-.2-4.9v-4.6l1 .1c.6 0 1.2.1 1.4.2.4.2.6.6.6 1.1 0 .4 0 .4.3.4h.3v-2.6h-9.6v.7c0 .4 0 .9-.1 1.3l-.1.6h.4c.4 0 .4 0 .4-.5 0-.2.1-.5.2-.6.2-.3.7-.5 1.9-.5l1.1-.1v4.7c0 5.2 0 5.1-.6 5.3-.2.1-.4.1-.6.1-.2 0-.2.1-.3.3v.2h5.2v-.4zm6.5.1c0-.2-.1-.2-.3-.3-.2 0-.4-.2-.5-.3-.2-.2-.2-.4-.2-2.6 0-1.9 0-2.4.1-2.7.3-.7.8-1 1.5-1 .8 0 1.1.4 1.3 1.8.1 1.1.1 4.1-.1 4.4-.1.2-.2.3-.5.3-.3.1-.4.1-.4.3v.2h4v-.1c0-.1-.1-.2-.2-.2s-.3 0-.5-.1c-.5-.1-.6-.3-.6-3.3 0-2.6-.1-2.7-.3-3.1-.3-.5-.8-1-1.3-1.1-.2-.1-.6-.1-.9-.1-.7 0-1.5.3-2 .8l-.3.3v-4.8h-.2c-.6.1-1.3.2-2.1.3-.6 0-.9.1-.9.2 0 .2.1.3.5.4.4.1.7.3.7.8v4.7c0 5 0 4.8-.7 4.9-.4.1-.6.2-.5.4 0 0 .9.1 2 .1h2l.4-.2z"></path></svg>
