<?xml version="1.0" encoding="UTF-8" standalone="no"?>
<!DOCTYPE svg PUBLIC "-//W3C//DTD SVG 1.1//EN" "http://www.w3.org/Graphics/SVG/1.1/DTD/svg11.dtd">
<svg version="1.1" xmlns="http://www.w3.org/2000/svg" xmlns:xlink="http://www.w3.org/1999/xlink" preserveAspectRatio="xMidYMid meet" viewBox="0 0 689 689" width="689" height="689"><defs><path d="M-0.11 168.89L688.89 168.89L688.89 520.15L-0.11 520.15L-0.11 344.52L-0.11 168.89ZM158.63 414.77C158.76 414.64 159.44 413.96 160.65 412.74L159.98 410.72L159.3 408.69C158.08 409.91 157.41 410.58 157.27 410.72C152.55 414.77 147.14 416.8 142.41 415.45C134.98 413.42 130.25 403.96 130.25 388.43C130.25 372.89 134.31 365.46 143.76 365.46C149.17 365.46 151.87 368.16 153.22 375.59C153.9 378.29 153.9 378.97 155.25 378.29C155.92 378.29 157.27 377.62 157.95 377.62C159.3 377.62 159.3 377.62 159.3 370.19C159.3 369.69 159.3 367.22 159.3 362.76C156.46 361.95 154.89 361.5 154.57 361.41C147.82 360.06 139.71 359.38 134.98 360.73C122.15 364.11 114.72 374.92 114.72 391.13C114.72 404.64 120.12 414.77 128.9 419.5C134.98 422.88 142.41 423.55 148.49 421.53C151.87 420.18 155.92 417.47 158.63 414.77ZM221.45 415.45C228.88 408.69 232.93 397.21 230.9 385.73C228.2 370.19 217.39 360.73 201.86 360.73C184.29 360.73 172.81 372.89 172.81 391.8C172.81 405.99 178.89 416.8 190.37 420.85C196.45 422.88 203.88 422.88 210.64 421.53C215.37 420.18 218.07 418.82 221.45 415.45ZM188.35 387.08C188.35 376.94 189.7 372.22 192.4 368.84C198.48 361.41 208.61 364.78 213.34 374.92C216.04 380.32 216.72 385.73 216.72 393.83C216.72 405.31 214.02 412.74 208.61 416.12C205.23 418.15 200.51 418.15 197.8 416.12C191.05 412.07 188.35 402.61 188.35 387.08ZM378.16 409.37C381.54 403.29 383.56 393.83 382.21 386.4C379.51 371.54 369.38 362.08 355.19 361.41C345.06 360.73 337.63 363.43 332.23 369.51C326.82 374.92 324.12 383.02 324.12 392.48C324.12 413.42 339.66 426.25 361.27 421.53C368.03 420.18 374.78 414.77 378.16 409.37ZM338.98 387.75C338.98 376.27 341.01 370.86 345.74 367.49C348.44 365.46 353.17 365.46 356.54 366.81C363.97 370.19 368.03 380.32 368.03 394.51C368.03 405.99 366 413.42 361.27 416.8C357.89 418.15 352.49 418.15 349.11 416.8C342.36 413.42 338.98 403.29 338.98 387.75ZM593.64 410.04C594.99 406.67 594.99 400.59 594.32 398.56C592.29 393.83 588.24 389.78 576.75 381.67C574.05 379.65 571.35 377.62 570.67 376.27C569.32 373.57 569.32 370.19 570.67 368.16C572.7 365.46 577.43 364.11 581.48 364.78C584.18 365.46 585.54 366.81 586.89 371.54C587.56 373.57 588.24 374.92 588.91 374.92C589.27 374.92 591.07 374.92 594.32 374.92C594.32 371.67 594.32 369.87 594.32 369.51C594.32 365.46 594.32 364.11 593.64 363.43C592.97 362.76 590.26 362.08 586.89 361.41C569.32 358.03 559.87 364.11 559.87 378.29C559.87 386.4 562.57 389.78 574.05 397.21C583.51 403.96 586.89 408.02 584.86 412.07C583.51 415.45 580.81 416.12 576.08 416.12C572.03 416.12 571.35 416.12 570 414.77C569.32 414.1 567.97 411.39 566.62 409.37C565.27 405.31 563.92 404.64 560.54 405.99C559.19 406.67 559.19 406.67 559.19 412.07C559.19 416.12 559.19 418.15 559.87 418.15C560.54 418.15 562.57 419.5 564.59 419.5C572.03 422.88 576.75 422.88 582.83 420.85C587.56 419.5 592.29 414.77 593.64 410.04ZM644.98 416.8C644.98 414.77 644.98 414.77 644.3 415.45C643.63 415.45 641.6 416.12 639.57 416.12C634.85 416.8 632.14 415.45 630.12 412.07C628.77 410.04 628.77 408.02 628.77 389.78C628.77 388.47 628.77 381.94 628.77 370.19L642.28 370.19C642.68 368.97 642.91 368.3 642.95 368.16C642.95 367.49 643.63 365.46 643.63 364.78C643.67 364.69 643.9 364.24 644.3 363.43L629.44 363.43L629.44 347.22L624.04 347.22C623.63 348.84 623.41 349.74 623.36 349.92C622.69 353.3 619.99 359.38 617.28 361.41C615.26 362.76 611.88 364.11 609.18 364.11C607.83 364.11 607.83 364.11 607.83 367.49C607.83 367.71 607.83 368.84 607.83 370.86L614.58 370.86C614.58 382.62 614.58 389.15 614.58 390.45C614.58 412.07 615.26 414.1 618.63 418.15C619.31 419.5 621.34 420.85 623.36 421.53C626.06 422.88 626.74 422.88 632.14 422.88C635.52 421.53 638.22 421.53 640.93 420.18C644.3 418.82 644.3 418.82 644.98 416.8ZM97.16 420.85C97.97 415.99 98.42 413.29 98.51 412.74C99.18 408.02 99.86 403.96 99.86 402.61C99.86 401.26 99.86 401.26 97.16 401.26C94.45 401.26 94.45 401.26 94.45 403.29C94.45 406.67 92.43 410.72 90.4 412.74C87.7 415.45 85 416.12 76.89 416.12C66.08 416.12 66.76 417.47 66.76 397.21C66.76 396.13 66.76 390.72 66.76 381C71.62 381 74.32 381 74.86 381C85.67 381.67 87.7 382.35 88.37 389.1C89.05 391.13 89.05 391.13 90.4 391.13C90.54 391.13 91.21 391.13 92.43 391.13L92.43 364.11C91.21 364.11 90.54 364.11 90.4 364.11C88.37 364.11 88.37 364.11 87.7 368.16C87.02 370.19 86.35 372.22 85.67 372.89C83.65 374.92 76.89 375.59 69.46 374.92C69.24 374.87 68.11 374.65 66.08 374.24L66.08 343.17C70.54 343.17 73.02 343.17 73.51 343.17C77.57 343.17 82.29 343.84 83.65 343.84C87.02 344.52 88.37 347.22 89.05 351.95C89.09 352.18 89.32 353.3 89.73 355.33L93.78 355.33L93.78 337.77L38.39 337.77C38.39 338.58 38.39 339.03 38.39 339.12C38.39 340.47 38.39 340.47 41.77 341.14C49.2 342.49 49.2 341.14 49.2 379.65C49.2 414.77 49.2 415.45 45.82 417.47C45.14 418.15 42.44 418.82 41.09 418.82C38.39 419.5 38.39 419.5 38.39 420.85C38.39 420.94 38.39 421.39 38.39 422.2C65.95 422.2 81.26 422.2 84.32 422.2C89.05 421.53 93.78 421.53 95.13 421.53C95.4 421.44 96.07 421.21 97.16 420.85ZM272.11 417.47C268.73 416.12 268.05 414.77 268.05 395.86C268.05 377.62 268.05 376.27 271.43 372.22C274.13 369.51 276.84 368.16 280.21 368.16C288.99 368.16 291.02 374.24 290.35 399.91C289.67 415.45 289.67 416.8 285.62 417.47C283.59 418.15 283.59 418.15 283.59 419.5C283.59 419.59 283.59 420.04 283.59 420.85L314.66 420.85C314.66 420.04 314.66 419.59 314.66 419.5C314.66 418.15 313.99 418.15 311.96 417.47C307.91 416.8 306.56 415.45 305.88 412.74C305.88 411.39 305.21 402.61 305.21 392.48C305.21 377.62 305.21 374.24 303.86 371.54C302.5 367.49 299.8 364.11 295.75 361.41C293.05 360.06 291.7 359.38 286.97 359.38C279.54 359.38 276.84 360.73 271.43 365.46C271.21 365.69 270.08 366.81 268.05 368.84C268.05 367.22 268.05 366.32 268.05 366.14C268.05 364.78 268.05 362.08 267.38 360.73C267.33 360.6 267.11 359.92 266.7 358.71C264.27 359.11 262.92 359.34 262.65 359.38C259.27 360.06 247.79 361.41 245.09 361.41C245.09 361.41 244.41 362.08 244.41 362.76C244.41 364.11 244.41 364.11 246.44 364.11C249.82 364.11 252.52 365.46 253.19 368.16C253.87 371.54 253.87 409.37 253.19 412.74C252.52 415.45 250.49 416.12 247.11 416.12C245.09 416.12 245.09 416.12 245.09 417.47C245.09 417.56 245.09 418.01 245.09 418.82C254.41 418.82 259.59 418.82 260.62 418.82C272.11 420.85 275.49 420.85 275.49 420.18C275.49 418.82 274.81 418.15 272.11 417.47ZM424.09 417.47C422.74 416.8 421.39 416.12 420.72 415.45C420.04 414.77 420.04 409.37 420.04 397.21C420.04 380.32 420.04 379.65 421.39 376.94C424.09 370.86 428.82 368.16 434.23 368.84C437.6 369.51 439.63 371.54 440.98 375.59C441.66 378.29 442.33 381.67 442.33 396.53C442.33 409.37 442.33 414.77 441.66 415.45C440.98 416.12 439.63 417.47 438.28 417.47C436.25 418.15 435.58 418.82 435.58 419.5C435.58 419.59 435.58 420.04 435.58 420.85L463.95 420.85C463.95 420.04 463.95 419.59 463.95 419.5C463.95 418.15 463.27 418.15 461.92 417.47C457.87 416.8 457.87 416.8 457.19 396.53C457.19 395.32 457.19 389.24 457.19 378.29C458 376.27 458.45 375.14 458.54 374.92C460.57 370.86 463.95 368.84 468 368.16C472.73 367.49 474.75 368.84 476.78 372.89C478.13 375.59 478.13 376.27 478.13 395.18C478.13 413.42 478.13 414.77 476.78 416.12C476.11 416.8 474.75 417.47 473.4 417.47C472.05 417.47 471.38 418.15 471.38 419.5C471.38 419.59 471.38 420.04 471.38 420.85L502.45 420.85C502.45 420.04 502.45 419.59 502.45 419.5C502.45 418.15 501.77 418.15 499.75 417.47C496.37 416.8 494.34 415.45 493.67 412.74C492.99 411.39 492.99 403.29 492.99 393.16C492.99 374.24 492.99 372.22 489.62 366.81C488.26 364.78 486.91 363.43 484.21 362.08C481.51 360.73 480.16 360.06 475.43 360.06C470.7 360.06 469.35 360.06 466.65 362.08C464.62 362.76 461.24 365.46 459.22 367.49C458.99 367.71 457.87 368.84 455.84 370.86C454.63 368.84 453.95 367.71 453.81 367.49C452.46 365.46 450.44 363.43 448.41 362.08C445.71 360.73 445.03 360.06 439.63 360.06C432.87 360.06 429.5 361.41 424.09 366.14C423.87 366.36 422.74 367.49 420.72 369.51C420.72 367.08 420.72 365.73 420.72 365.46C420.72 363.43 420.72 360.73 420.04 360.06C420.04 358.71 419.36 358.71 415.99 359.38C412.61 360.06 401.13 361.41 398.42 361.41C398.42 361.41 397.75 362.08 397.75 362.76C397.75 364.11 397.75 364.11 399.78 364.11C403.15 364.11 405.18 365.46 406.53 367.49C407.88 370.19 407.88 409.37 406.53 412.74C405.85 414.77 403.83 416.12 400.45 416.12C398.42 416.12 398.42 416.12 398.42 417.47C398.42 417.56 398.42 418.01 398.42 418.82L426.79 418.82L426.79 419.5C426.34 418.6 425.44 417.92 424.09 417.47ZM543.65 418.82C543.65 418.82 542.3 418.15 540.95 418.15C536.9 417.47 535.55 416.12 534.87 410.04C534.87 407.34 534.2 394.51 534.2 382.35C534.2 380.86 534.2 373.43 534.2 360.06C531.36 360.46 529.78 360.69 529.47 360.73C526.77 361.41 522.04 362.08 517.99 362.08C513.93 362.08 510.56 362.76 510.56 362.76C509.88 363.43 511.23 365.46 512.58 365.46C515.28 365.46 517.99 366.81 518.66 368.16C520.01 370.19 520.69 393.83 520.01 405.31C519.34 415.45 518.66 416.12 514.61 416.8C511.91 417.47 511.23 417.47 511.23 419.5C511.23 420.18 514.61 420.18 528.12 420.18C542.98 420.85 544.33 420.85 544.33 420.18C544.33 419.5 543.79 419.09 543.65 418.82ZM529.47 333.04C520.69 329.66 514.61 342.49 522.71 347.9C525.42 349.25 528.79 349.25 530.82 347.9C536.9 344.52 536.22 335.06 529.47 333.04ZM433.55 310.07C436.93 306.69 437.6 306.02 436.93 303.99C436.88 303.9 436.66 303.45 436.25 302.64C434.63 304.26 433.73 305.16 433.55 305.34C426.12 312.1 417.34 312.77 411.26 307.37C407.88 303.99 404.5 295.88 404.5 289.13C404.5 288.95 404.5 288.05 404.5 286.43L438.28 286.43C437.87 283.59 437.65 282.01 437.6 281.7C436.93 276.3 436.25 272.92 433.55 268.87C429.5 262.79 423.42 260.08 414.64 260.76C403.15 261.43 395.05 269.54 392.34 281.7C390.99 287.1 390.99 292.51 392.34 297.24C393.7 302.64 395.05 305.34 399.1 309.39C404.5 316.15 413.29 318.85 422.74 316.15C426.12 315.47 430.17 312.77 433.55 310.07ZM408.56 267.51C410.58 265.49 411.26 265.49 413.96 265.49C416.66 265.49 418.01 266.16 419.36 266.84C421.39 268.19 424.77 273.59 425.44 277.65C425.49 277.83 425.71 278.73 426.12 280.35C424.9 280.75 424.23 280.98 424.09 281.02C422.74 281.02 418.01 281.7 413.29 281.7C412.7 281.74 409.77 281.97 404.5 282.38L403.83 279C405.18 273.14 406.76 269.32 408.56 267.51ZM303.18 312.1C299.8 312.1 297.78 310.75 296.43 308.72C295.75 306.69 295.07 303.99 295.07 275.62C295.07 273.55 295.07 263.19 295.07 244.55C299.13 244.95 301.38 245.18 301.83 245.22C305.88 245.22 309.94 245.9 311.29 246.57C313.99 247.93 315.34 250.63 315.34 254C315.34 256.71 315.34 256.71 317.37 256.71C317.5 256.71 318.18 256.71 319.39 256.71L319.39 239.14L254.54 239.14C254.54 241.98 254.54 243.56 254.54 243.87C254.54 246.57 254.54 249.95 253.87 252.65C253.82 252.92 253.6 254.27 253.19 256.71C254.82 256.71 255.72 256.71 255.9 256.71C258.6 256.71 258.6 256.71 258.6 253.33C258.6 251.98 259.27 249.95 259.95 249.28C261.3 247.25 264.68 245.9 272.78 245.9C273.28 245.85 275.76 245.63 280.21 245.22C280.21 264.27 280.21 274.85 280.21 276.97C280.21 312.1 280.21 311.42 276.16 312.77C274.81 313.45 273.46 313.45 272.11 313.45C270.76 313.45 270.76 314.12 270.08 315.47C270.08 315.56 270.08 316.01 270.08 316.83L305.21 316.83L305.21 314.12C305.21 313.22 304.53 312.55 303.18 312.1ZM347.09 312.77C345.74 312.77 344.39 311.42 343.71 310.75C342.36 309.39 342.36 308.04 342.36 293.18C342.36 280.35 342.36 276.97 343.03 274.94C345.06 270.22 348.44 268.19 353.17 268.19C358.57 268.19 360.6 270.89 361.95 280.35C362.62 287.78 362.62 308.04 361.27 310.07C360.6 311.42 359.92 312.1 357.89 312.1C355.87 312.77 355.19 312.77 355.19 314.12C355.19 314.21 355.19 314.66 355.19 315.47L382.21 315.47C382.21 315.07 382.21 314.84 382.21 314.8C382.21 314.12 381.54 313.45 380.86 313.45C380.19 313.45 378.84 313.45 377.48 312.77C374.11 312.1 373.43 310.75 373.43 290.48C373.43 272.92 372.76 272.24 371.4 269.54C369.38 266.16 366 262.79 362.62 262.11C361.27 261.43 358.57 261.43 356.54 261.43C351.82 261.43 346.41 263.46 343.03 266.84C342.9 266.97 342.22 267.65 341.01 268.87L341.01 236.44C340.2 236.44 339.75 236.44 339.66 236.44C335.6 237.12 330.88 237.79 325.47 238.47C321.42 238.47 319.39 239.14 319.39 239.82C319.39 241.17 320.07 241.85 322.77 242.52C325.47 243.2 327.5 244.55 327.5 247.93C327.5 251.1 327.5 276.5 327.5 279.67C327.5 313.45 327.5 312.1 322.77 312.77C320.07 313.45 318.72 314.12 319.39 315.47C319.39 315.47 325.47 316.15 332.9 316.15C333.8 316.15 338.31 316.15 346.41 316.15L349.11 314.8C348.66 313.9 347.99 313.22 347.09 312.77Z" id="bZm7VeL3L"></path></defs><g><g><g><use xlink:href="#bZm7VeL3L" opacity="1" fill="#ff0000" fill-opacity="1"></use><g><use xlink:href="#bZm7VeL3L" opacity="1" fill-opacity="0" stroke="#000000" stroke-width="1" stroke-opacity="0"></use></g></g></g></g></svg>