<svg id="gm-icon-output" viewBox="0 0 91 91" width="100%" height="100%"><circle class="gm-icon-output-st0" cx="73.5" cy="31.8" r="2.1"></circle><circle class="gm-icon-output-st0" cx="14.6" cy="57.3" r="2.1"></circle><path class="gm-icon-output-st0" d="M56.5 1.4C32.1-4.7 7.4 10.1 1.4 34.5c-6.1 24.4 8.8 49.1 33.1 55.1 24.4 6.1 49.1-8.8 55.1-33.1 6.1-24.4-8.7-49.1-33.1-55.1zm17 35.2c-.7 0-1.4-.2-2.1-.5l-9.6 14.6c.9.9 1.4 2.1 1.4 3.4 0 2.6-2.1 4.8-4.8 4.8-2.6 0-4.8-2.1-4.8-4.8v-.4l-7.5-2.1c-.8 1.5-2.4 2.5-4.2 2.5-2.6 0-4.8-2.1-4.8-4.8 0-1.3.5-2.5 1.4-3.3l-7.9-11.3c-.6.3-1.4.5-2.1.5-.5 0-1-.1-1.4-.2l-9.5 18.7c1 .9 1.7 2.2 1.7 3.6 0 2.6-2.1 4.8-4.8 4.8-2.6 0-4.8-2.1-4.8-4.8 0-2.6 2.1-4.8 4.8-4.8.5 0 1 .1 1.5.3l9.4-18.7c-1.1-.9-1.8-2.2-1.8-3.7 0-2.6 2.1-4.8 4.8-4.8 2.6 0 4.8 2.1 4.8 4.8 0 1.2-.5 2.3-1.2 3.2L40 45c.6-.3 1.2-.4 1.9-.4 2.6 0 4.8 2.1 4.8 4.8 0 .2 0 .4-.1.5L54 52c.8-1.6 2.4-2.6 4.3-2.6.7 0 1.3.1 1.9.4L70 35c-.8-.9-1.3-2-1.3-3.2 0-2.6 2.1-4.8 4.8-4.8 2.6 0 4.8 2.1 4.8 4.8 0 2.6-2.2 4.8-4.8 4.8z"></path></svg>