<?xml version="1.0" encoding="UTF-8" standalone="no"?>
<!DOCTYPE svg PUBLIC "-//W3C//DTD SVG 1.1//EN" "http://www.w3.org/Graphics/SVG/1.1/DTD/svg11.dtd">
<svg version="1.1" xmlns="http://www.w3.org/2000/svg" xmlns:xlink="http://www.w3.org/1999/xlink" preserveAspectRatio="xMidYMid meet" viewBox="0 0 689 689" width="689" height="689"><defs><path d="M47.14 388.02L23.57 388.02L23.57 323.95L0 323.95L0 303.4L70.71 303.4L70.71 323.95L47.14 323.95L47.14 388.02ZM88.24 362.63C88.84 369.88 93.08 372.91 99.12 372.91C104.56 372.91 109.39 371.7 115.44 368.68C116.28 370.07 123.05 381.19 123.9 382.58C116.04 387.41 108.19 389.83 97.91 389.83C78.57 389.83 68.3 376.53 68.3 356.59C68.3 334.83 80.38 323.35 97.31 323.35C114.83 323.35 125.71 334.83 125.71 358.4C125.71 358.68 125.71 360.09 125.71 362.63C103.23 362.63 90.74 362.63 88.24 362.63ZM88.24 348.73C90.05 348.73 104.56 348.73 106.37 348.73C105.16 342.69 103.35 339.06 96.7 339.06C91.87 339.06 88.84 342.69 88.24 348.73ZM136.59 355.98C136.59 336.64 146.26 323.35 166.81 323.35C178.9 323.35 185.55 328.79 190.99 337.85C189.48 339 177.39 348.19 175.88 349.34C172.85 343.9 171.04 340.87 166.21 340.87C160.77 340.87 157.74 346.31 157.74 356.59C157.74 366.86 160.77 371.7 166.81 371.7C171.04 371.7 174.06 369.28 177.69 363.24C179.08 364.32 190.2 373.03 191.59 374.11C184.34 384.99 177.09 389.22 166.21 389.22C147.47 389.22 136.59 377.14 136.59 355.98ZM240.55 351.75C240.55 343.29 237.52 341.48 233.29 341.48C228.46 341.48 226.04 343.9 226.04 351.75C226.04 354.17 226.04 366.26 226.04 388.02L204.28 388.02L204.28 308.24L225.44 299.78C225.44 317.18 225.44 326.85 225.44 328.79C229.67 325.76 233.9 323.35 241.75 323.35C255.66 323.35 262.3 332.41 262.3 349.34C262.3 351.91 262.3 364.81 262.3 388.02L240.55 388.02C240.55 366.26 240.55 354.17 240.55 351.75Z" id="eSbBeuUyp"></path><path d="M275.6 345.71C275.6 318.51 291.31 302.19 314.28 302.19C334.83 302.19 343.29 311.26 349.34 326.97C347.22 327.82 330.3 334.59 328.18 335.43C325.16 327.58 322.14 322.74 314.28 322.74C304.61 322.74 300.38 332.41 300.38 345.71C300.38 358.4 304.61 368.68 314.89 368.68C322.14 368.68 325.16 364.44 329.99 356.59C331.99 357.62 347.95 365.83 349.94 366.86C343.9 378.35 334.23 389.22 314.28 389.22C288.9 389.22 275.6 370.49 275.6 345.71ZM392.85 342.69C387.41 342.69 384.39 345.1 384.39 352.96C384.39 355.26 384.39 366.74 384.39 387.41L362.63 387.41L362.63 324.56L384.39 324.56C384.39 327.46 384.39 329.07 384.39 329.39C388.02 325.76 392.25 323.35 397.69 323.35C402.52 323.35 405.54 324.56 407.96 325.76C407.64 327.25 406.03 334.71 403.13 348.13C399.1 344.5 395.67 342.69 392.85 342.69ZM454.5 383.79C450.87 386.81 446.04 389.22 438.78 389.22C424.88 389.22 418.24 380.16 418.24 363.24C418.24 360.66 418.24 347.76 418.24 324.56L439.99 324.56C439.99 346.31 439.99 358.4 439.99 360.82C439.99 369.28 443.01 371.09 447.25 371.09C451.48 371.09 454.5 368.68 454.5 360.82C454.5 358.4 454.5 346.31 454.5 324.56L476.26 324.56L476.26 388.02L454.5 388.02C454.5 385.48 454.5 384.07 454.5 383.79ZM528.84 351.75C528.84 343.29 525.82 341.48 521.59 341.48C516.75 341.48 514.33 343.9 514.33 351.75C514.33 354.17 514.33 366.26 514.33 388.02L492.57 388.02L492.57 324.56L514.33 324.56C514.33 327.09 514.33 328.5 514.33 328.79C518.56 325.76 522.79 323.35 530.05 323.35C543.95 323.35 550.6 332.41 550.6 349.34C550.6 351.91 550.6 364.81 550.6 388.02L528.84 388.02C528.84 366.26 528.84 354.17 528.84 351.75ZM563.29 355.98C563.29 336.64 572.96 323.35 593.51 323.35C605.59 323.35 612.24 328.79 617.68 337.85C616.17 339 604.08 348.19 602.57 349.34C599.55 343.9 597.74 340.87 592.9 340.87C587.46 340.87 584.44 346.31 584.44 356.59C584.44 366.86 587.46 371.7 593.51 371.7C597.74 371.7 600.76 369.28 604.39 363.24C605.78 364.32 616.9 373.03 618.29 374.11C611.03 384.99 604.39 389.22 592.9 389.22C574.17 389.22 563.29 377.14 563.29 355.98ZM667.24 351.75C667.24 343.29 664.22 341.48 659.99 341.48C655.15 341.48 652.74 343.9 652.74 351.75C652.74 354.17 652.74 366.26 652.74 388.02L630.98 388.02L630.98 308.24L652.74 299.78C652.74 317.18 652.74 326.85 652.74 328.79C656.97 325.76 661.2 323.35 668.45 323.35C682.35 323.35 689 332.41 689 349.34C689 351.91 689 364.81 689 388.02L667.24 388.02C667.24 366.26 667.24 354.17 667.24 351.75Z" id="aGrohAQ0U"></path></defs><g><g><g><use xlink:href="#eSbBeuUyp" opacity="1" fill="#3fc800" fill-opacity="1"></use><g><use xlink:href="#eSbBeuUyp" opacity="1" fill-opacity="0" stroke="#000000" stroke-width="1" stroke-opacity="0"></use></g></g><g><use xlink:href="#aGrohAQ0U" opacity="1" fill="#000000" fill-opacity="1"></use><g><use xlink:href="#aGrohAQ0U" opacity="1" fill-opacity="0" stroke="#000000" stroke-width="1" stroke-opacity="0"></use></g></g></g></g></svg>