<svg width="307" height="77" viewBox="0 0 307 77" fill="none" xmlns="http://www.w3.org/2000/svg">
<mask id="path-1-outside-1" maskUnits="userSpaceOnUse" x="0.223999" y="0.839996" width="307" height="76" fill="black">
<rect fill="white" x="0.223999" y="0.839996" width="307" height="76"/>
<path d="M31.68 73.152C28.224 73.152 23.84 72.512 18.528 71.232C15.2 72.128 12.096 72.576 9.216 72.576C6.336 72.576 4.672 72.48 4.224 72.288C4.672 68.448 6.56 59.008 9.888 43.968C13.28 28.864 14.976 19.392 14.976 15.552C14.976 14.784 14.56 13.76 13.728 12.48C12.896 11.2 12.064 10.112 11.232 9.216L9.984 7.87199L10.272 6.432C18.656 4.704 27.68 3.84 37.344 3.84C42.656 3.84 47.008 5.12 50.4 7.68C53.856 10.176 55.584 13.696 55.584 18.24C55.584 27.008 50.24 33.088 39.552 36.48C43.84 36.992 47.424 38.624 50.304 41.376C53.248 44.064 54.72 47.872 54.72 52.8C54.72 58.816 52.544 63.712 48.192 67.488C43.84 71.264 38.336 73.152 31.68 73.152ZM29.952 39.072C28.16 39.072 26.56 39.232 25.152 39.552C22.4 51.712 20.64 60.192 19.872 64.992C21.472 66.08 23.968 66.624 27.36 66.624C30.816 66.624 33.76 65.28 36.192 62.592C38.624 59.84 39.84 55.904 39.84 50.784C39.84 42.976 36.544 39.072 29.952 39.072ZM35.328 9.792C32.896 9.792 31.456 10.016 31.008 10.464C30.112 16.224 28.64 23.776 26.592 33.12C29.152 33.12 30.944 32.96 31.968 32.64C32.992 32.32 33.888 31.904 34.656 31.392C35.488 30.88 36.416 30.08 37.44 28.992C39.68 26.624 40.8 22.848 40.8 17.664C40.8 12.416 38.976 9.792 35.328 9.792Z"/>
<path d="M79.4707 35.424C79.4707 38.112 78.6068 42.752 76.8788 49.344C75.1508 55.872 74.2868 60.16 74.2868 62.208C74.2868 64.192 74.5747 65.184 75.1507 65.184C75.5347 65.184 77.0068 64.576 79.5667 63.36L80.7188 62.784L82.3508 66.144C81.7748 66.656 81.0068 67.296 80.0468 68.064C79.0868 68.832 77.2948 69.888 74.6708 71.232C72.0468 72.512 69.6147 73.152 67.3747 73.152C65.1347 73.152 63.3747 72.48 62.0947 71.136C60.8147 69.728 60.1748 67.872 60.1748 65.568C60.1748 63.2 60.9747 59.04 62.5747 53.088C64.1747 47.072 64.9747 43.168 64.9747 41.376C64.9747 38.688 64.1428 36.16 62.4788 33.792L61.6147 32.64L61.7108 31.392C65.1028 30.432 70.6067 29.952 78.2227 29.952C79.0547 30.912 79.4707 32.736 79.4707 35.424ZM68.5267 19.488C67.2467 18.208 66.6068 16.512 66.6068 14.4C66.6068 12.288 67.4708 10.432 69.1988 8.83199C70.9908 7.23199 73.0388 6.432 75.3428 6.432C77.6468 6.432 79.4388 7.072 80.7188 8.352C81.9988 9.632 82.6387 11.328 82.6387 13.44C82.6387 15.488 81.7108 17.312 79.8548 18.912C78.0628 20.512 76.0467 21.312 73.8067 21.312C71.5667 21.312 69.8067 20.704 68.5267 19.488Z"/>
<path d="M88.347 72.288H86.523C86.523 69.28 87.419 63.52 89.211 55.008C91.067 46.496 91.995 41.664 91.995 40.512C91.995 38.4 91.099 36.16 89.307 33.792L88.443 32.64L88.539 31.392C91.995 30.432 97.531 29.952 105.147 29.952C105.979 31.04 106.427 33.024 106.491 35.904C112.059 31.616 116.763 29.472 120.603 29.472C122.907 29.472 124.731 30.272 126.075 31.872C127.483 33.472 128.187 35.488 128.187 37.92C128.187 40.288 127.451 44.416 125.979 50.304C124.507 56.192 123.771 60.16 123.771 62.208C123.771 64.192 124.027 65.184 124.539 65.184C124.923 65.184 126.267 64.576 128.571 63.36L129.723 62.784L131.451 66.144C130.875 66.656 130.107 67.296 129.147 68.064C128.187 68.832 126.395 69.888 123.771 71.232C121.211 72.512 118.907 73.152 116.859 73.152C112.187 73.152 109.851 70.496 109.851 65.184C109.851 62.944 110.555 58.816 111.963 52.8C113.435 46.784 114.171 42.912 114.171 41.184C114.171 39.456 113.627 38.592 112.539 38.592C110.683 38.592 108.411 39.392 105.723 40.992C105.531 42.08 104.891 44.96 103.803 49.632C101.563 59.68 100.443 66.784 100.443 70.944C98.203 71.84 94.171 72.288 88.347 72.288Z"/>
<path d="M163.113 32.256C163.241 32.128 163.593 31.296 164.169 29.76C167.177 29.76 171.209 30.656 176.265 32.448C174.665 37.76 173.385 43.328 172.425 49.152C171.465 54.912 170.985 59.04 170.985 61.536C170.985 63.968 171.241 65.184 171.753 65.184C172.137 65.184 173.545 64.576 175.977 63.36L177.129 62.784L178.857 66.144C178.281 66.656 177.513 67.296 176.553 68.064C175.657 68.832 173.929 69.888 171.369 71.232C168.809 72.512 166.505 73.152 164.457 73.152C160.489 73.152 158.185 71.36 157.545 67.776C153.449 71.36 149.737 73.152 146.409 73.152C143.145 73.152 140.361 71.872 138.057 69.312C135.817 66.752 134.697 62.72 134.697 57.216C134.697 48.64 136.457 41.888 139.977 36.96C143.497 31.968 147.753 29.472 152.745 29.472C156.329 29.472 159.785 30.4 163.113 32.256ZM152.169 64.992C153.705 64.992 155.433 64.384 157.353 63.168C157.801 54.144 159.305 45.216 161.865 36.384C159.945 35.552 158.313 35.136 156.969 35.136C154.665 35.136 152.681 37.408 151.017 41.952C149.417 46.432 148.617 51.392 148.617 56.832C148.617 62.272 149.801 64.992 152.169 64.992Z"/>
<path d="M183.222 72.288H181.398C181.398 69.28 182.294 63.52 184.086 55.008C185.942 46.496 186.87 41.664 186.87 40.512C186.87 38.4 185.974 36.16 184.182 33.792L183.318 32.64L183.414 31.392C186.87 30.432 192.406 29.952 200.022 29.952C200.854 31.04 201.302 33.024 201.366 35.904C206.934 31.616 211.638 29.472 215.478 29.472C217.782 29.472 219.606 30.272 220.95 31.872C222.358 33.472 223.062 35.488 223.062 37.92C223.062 40.288 222.326 44.416 220.854 50.304C219.382 56.192 218.646 60.16 218.646 62.208C218.646 64.192 218.902 65.184 219.414 65.184C219.798 65.184 221.142 64.576 223.446 63.36L224.598 62.784L226.326 66.144C225.75 66.656 224.982 67.296 224.022 68.064C223.062 68.832 221.27 69.888 218.646 71.232C216.086 72.512 213.782 73.152 211.734 73.152C207.062 73.152 204.726 70.496 204.726 65.184C204.726 62.944 205.43 58.816 206.838 52.8C208.31 46.784 209.046 42.912 209.046 41.184C209.046 39.456 208.502 38.592 207.414 38.592C205.558 38.592 203.286 39.392 200.598 40.992C200.406 42.08 199.766 44.96 198.678 49.632C196.438 59.68 195.318 66.784 195.318 70.944C193.078 71.84 189.046 72.288 183.222 72.288Z"/>
<path d="M251.46 34.272C248.9 34.272 246.852 36.416 245.316 40.704C243.78 44.928 243.012 49.472 243.012 54.336C243.012 62.016 245.38 65.856 250.116 65.856C251.652 65.856 253.284 65.504 255.012 64.8C256.74 64.032 258.116 63.296 259.14 62.592L260.58 61.44L262.788 64.416C262.276 65.12 261.252 66.048 259.716 67.2C258.18 68.352 256.74 69.312 255.396 70.08C254.052 70.848 252.324 71.552 250.212 72.192C248.1 72.832 246.02 73.152 243.972 73.152C238.98 73.152 235.236 71.52 232.74 68.256C230.244 64.992 228.996 60.608 228.996 55.104C228.996 47.488 231.076 41.312 235.236 36.576C239.46 31.84 244.868 29.472 251.46 29.472C255.748 29.472 259.14 30.464 261.636 32.448C264.196 34.368 265.476 36.768 265.476 39.648C265.476 42.464 264.58 44.896 262.788 46.944C261.188 46.944 259.332 46.592 257.22 45.888C255.108 45.184 253.508 44.32 252.42 43.296L253.86 34.848C253.284 34.464 252.484 34.272 251.46 34.272Z"/>
<path d="M267.152 55.392C267.152 47.392 269.552 41.088 274.352 36.48C279.216 31.808 284.72 29.472 290.864 29.472C294.64 29.472 297.744 30.4 300.176 32.256C302.608 34.112 303.824 36.608 303.824 39.744C303.824 42.816 303.024 45.408 301.424 47.52C299.888 49.632 298 51.264 295.76 52.416C291.216 54.656 287.056 56.064 283.28 56.64L280.976 56.928C281.424 62.944 283.888 65.952 288.368 65.952C289.904 65.952 291.536 65.568 293.264 64.8C294.992 64.032 296.336 63.264 297.296 62.496L298.736 61.344L301.04 64.416C300.528 65.12 299.504 66.048 297.968 67.2C296.432 68.352 294.992 69.312 293.648 70.08C289.936 72.128 285.872 73.152 281.456 73.152C277.04 73.152 273.552 71.584 270.992 68.448C268.432 65.312 267.152 60.96 267.152 55.392ZM280.88 52.224C284.144 51.648 286.736 50.272 288.656 48.096C290.576 45.92 291.536 43.104 291.536 39.648C291.536 36.192 290.512 34.464 288.464 34.464C286.032 34.464 284.144 36.544 282.8 40.704C281.52 44.8 280.88 48.64 280.88 52.224Z"/>
</mask>
<path d="M31.68 73.152C28.224 73.152 23.84 72.512 18.528 71.232C15.2 72.128 12.096 72.576 9.216 72.576C6.336 72.576 4.672 72.48 4.224 72.288C4.672 68.448 6.56 59.008 9.888 43.968C13.28 28.864 14.976 19.392 14.976 15.552C14.976 14.784 14.56 13.76 13.728 12.48C12.896 11.2 12.064 10.112 11.232 9.216L9.984 7.87199L10.272 6.432C18.656 4.704 27.68 3.84 37.344 3.84C42.656 3.84 47.008 5.12 50.4 7.68C53.856 10.176 55.584 13.696 55.584 18.24C55.584 27.008 50.24 33.088 39.552 36.48C43.84 36.992 47.424 38.624 50.304 41.376C53.248 44.064 54.72 47.872 54.72 52.8C54.72 58.816 52.544 63.712 48.192 67.488C43.84 71.264 38.336 73.152 31.68 73.152ZM29.952 39.072C28.16 39.072 26.56 39.232 25.152 39.552C22.4 51.712 20.64 60.192 19.872 64.992C21.472 66.08 23.968 66.624 27.36 66.624C30.816 66.624 33.76 65.28 36.192 62.592C38.624 59.84 39.84 55.904 39.84 50.784C39.84 42.976 36.544 39.072 29.952 39.072ZM35.328 9.792C32.896 9.792 31.456 10.016 31.008 10.464C30.112 16.224 28.64 23.776 26.592 33.12C29.152 33.12 30.944 32.96 31.968 32.64C32.992 32.32 33.888 31.904 34.656 31.392C35.488 30.88 36.416 30.08 37.44 28.992C39.68 26.624 40.8 22.848 40.8 17.664C40.8 12.416 38.976 9.792 35.328 9.792Z" stroke="white" stroke-width="6" mask="url(#path-1-outside-1)"/>
<path d="M79.4707 35.424C79.4707 38.112 78.6068 42.752 76.8788 49.344C75.1508 55.872 74.2868 60.16 74.2868 62.208C74.2868 64.192 74.5747 65.184 75.1507 65.184C75.5347 65.184 77.0068 64.576 79.5667 63.36L80.7188 62.784L82.3508 66.144C81.7748 66.656 81.0068 67.296 80.0468 68.064C79.0868 68.832 77.2948 69.888 74.6708 71.232C72.0468 72.512 69.6147 73.152 67.3747 73.152C65.1347 73.152 63.3747 72.48 62.0947 71.136C60.8147 69.728 60.1748 67.872 60.1748 65.568C60.1748 63.2 60.9747 59.04 62.5747 53.088C64.1747 47.072 64.9747 43.168 64.9747 41.376C64.9747 38.688 64.1428 36.16 62.4788 33.792L61.6147 32.64L61.7108 31.392C65.1028 30.432 70.6067 29.952 78.2227 29.952C79.0547 30.912 79.4707 32.736 79.4707 35.424ZM68.5267 19.488C67.2467 18.208 66.6068 16.512 66.6068 14.4C66.6068 12.288 67.4708 10.432 69.1988 8.83199C70.9908 7.23199 73.0388 6.432 75.3428 6.432C77.6468 6.432 79.4388 7.072 80.7188 8.352C81.9988 9.632 82.6387 11.328 82.6387 13.44C82.6387 15.488 81.7108 17.312 79.8548 18.912C78.0628 20.512 76.0467 21.312 73.8067 21.312C71.5667 21.312 69.8067 20.704 68.5267 19.488Z" stroke="white" stroke-width="6" mask="url(#path-1-outside-1)"/>
<path d="M88.347 72.288H86.523C86.523 69.28 87.419 63.52 89.211 55.008C91.067 46.496 91.995 41.664 91.995 40.512C91.995 38.4 91.099 36.16 89.307 33.792L88.443 32.64L88.539 31.392C91.995 30.432 97.531 29.952 105.147 29.952C105.979 31.04 106.427 33.024 106.491 35.904C112.059 31.616 116.763 29.472 120.603 29.472C122.907 29.472 124.731 30.272 126.075 31.872C127.483 33.472 128.187 35.488 128.187 37.92C128.187 40.288 127.451 44.416 125.979 50.304C124.507 56.192 123.771 60.16 123.771 62.208C123.771 64.192 124.027 65.184 124.539 65.184C124.923 65.184 126.267 64.576 128.571 63.36L129.723 62.784L131.451 66.144C130.875 66.656 130.107 67.296 129.147 68.064C128.187 68.832 126.395 69.888 123.771 71.232C121.211 72.512 118.907 73.152 116.859 73.152C112.187 73.152 109.851 70.496 109.851 65.184C109.851 62.944 110.555 58.816 111.963 52.8C113.435 46.784 114.171 42.912 114.171 41.184C114.171 39.456 113.627 38.592 112.539 38.592C110.683 38.592 108.411 39.392 105.723 40.992C105.531 42.08 104.891 44.96 103.803 49.632C101.563 59.68 100.443 66.784 100.443 70.944C98.203 71.84 94.171 72.288 88.347 72.288Z" stroke="white" stroke-width="6" mask="url(#path-1-outside-1)"/>
<path d="M163.113 32.256C163.241 32.128 163.593 31.296 164.169 29.76C167.177 29.76 171.209 30.656 176.265 32.448C174.665 37.76 173.385 43.328 172.425 49.152C171.465 54.912 170.985 59.04 170.985 61.536C170.985 63.968 171.241 65.184 171.753 65.184C172.137 65.184 173.545 64.576 175.977 63.36L177.129 62.784L178.857 66.144C178.281 66.656 177.513 67.296 176.553 68.064C175.657 68.832 173.929 69.888 171.369 71.232C168.809 72.512 166.505 73.152 164.457 73.152C160.489 73.152 158.185 71.36 157.545 67.776C153.449 71.36 149.737 73.152 146.409 73.152C143.145 73.152 140.361 71.872 138.057 69.312C135.817 66.752 134.697 62.72 134.697 57.216C134.697 48.64 136.457 41.888 139.977 36.96C143.497 31.968 147.753 29.472 152.745 29.472C156.329 29.472 159.785 30.4 163.113 32.256ZM152.169 64.992C153.705 64.992 155.433 64.384 157.353 63.168C157.801 54.144 159.305 45.216 161.865 36.384C159.945 35.552 158.313 35.136 156.969 35.136C154.665 35.136 152.681 37.408 151.017 41.952C149.417 46.432 148.617 51.392 148.617 56.832C148.617 62.272 149.801 64.992 152.169 64.992Z" stroke="white" stroke-width="6" mask="url(#path-1-outside-1)"/>
<path d="M183.222 72.288H181.398C181.398 69.28 182.294 63.52 184.086 55.008C185.942 46.496 186.87 41.664 186.87 40.512C186.87 38.4 185.974 36.16 184.182 33.792L183.318 32.64L183.414 31.392C186.87 30.432 192.406 29.952 200.022 29.952C200.854 31.04 201.302 33.024 201.366 35.904C206.934 31.616 211.638 29.472 215.478 29.472C217.782 29.472 219.606 30.272 220.95 31.872C222.358 33.472 223.062 35.488 223.062 37.92C223.062 40.288 222.326 44.416 220.854 50.304C219.382 56.192 218.646 60.16 218.646 62.208C218.646 64.192 218.902 65.184 219.414 65.184C219.798 65.184 221.142 64.576 223.446 63.36L224.598 62.784L226.326 66.144C225.75 66.656 224.982 67.296 224.022 68.064C223.062 68.832 221.27 69.888 218.646 71.232C216.086 72.512 213.782 73.152 211.734 73.152C207.062 73.152 204.726 70.496 204.726 65.184C204.726 62.944 205.43 58.816 206.838 52.8C208.31 46.784 209.046 42.912 209.046 41.184C209.046 39.456 208.502 38.592 207.414 38.592C205.558 38.592 203.286 39.392 200.598 40.992C200.406 42.08 199.766 44.96 198.678 49.632C196.438 59.68 195.318 66.784 195.318 70.944C193.078 71.84 189.046 72.288 183.222 72.288Z" stroke="white" stroke-width="6" mask="url(#path-1-outside-1)"/>
<path d="M251.46 34.272C248.9 34.272 246.852 36.416 245.316 40.704C243.78 44.928 243.012 49.472 243.012 54.336C243.012 62.016 245.38 65.856 250.116 65.856C251.652 65.856 253.284 65.504 255.012 64.8C256.74 64.032 258.116 63.296 259.14 62.592L260.58 61.44L262.788 64.416C262.276 65.12 261.252 66.048 259.716 67.2C258.18 68.352 256.74 69.312 255.396 70.08C254.052 70.848 252.324 71.552 250.212 72.192C248.1 72.832 246.02 73.152 243.972 73.152C238.98 73.152 235.236 71.52 232.74 68.256C230.244 64.992 228.996 60.608 228.996 55.104C228.996 47.488 231.076 41.312 235.236 36.576C239.46 31.84 244.868 29.472 251.46 29.472C255.748 29.472 259.14 30.464 261.636 32.448C264.196 34.368 265.476 36.768 265.476 39.648C265.476 42.464 264.58 44.896 262.788 46.944C261.188 46.944 259.332 46.592 257.22 45.888C255.108 45.184 253.508 44.32 252.42 43.296L253.86 34.848C253.284 34.464 252.484 34.272 251.46 34.272Z" stroke="white" stroke-width="6" mask="url(#path-1-outside-1)"/>
<path d="M267.152 55.392C267.152 47.392 269.552 41.088 274.352 36.48C279.216 31.808 284.72 29.472 290.864 29.472C294.64 29.472 297.744 30.4 300.176 32.256C302.608 34.112 303.824 36.608 303.824 39.744C303.824 42.816 303.024 45.408 301.424 47.52C299.888 49.632 298 51.264 295.76 52.416C291.216 54.656 287.056 56.064 283.28 56.64L280.976 56.928C281.424 62.944 283.888 65.952 288.368 65.952C289.904 65.952 291.536 65.568 293.264 64.8C294.992 64.032 296.336 63.264 297.296 62.496L298.736 61.344L301.04 64.416C300.528 65.12 299.504 66.048 297.968 67.2C296.432 68.352 294.992 69.312 293.648 70.08C289.936 72.128 285.872 73.152 281.456 73.152C277.04 73.152 273.552 71.584 270.992 68.448C268.432 65.312 267.152 60.96 267.152 55.392ZM280.88 52.224C284.144 51.648 286.736 50.272 288.656 48.096C290.576 45.92 291.536 43.104 291.536 39.648C291.536 36.192 290.512 34.464 288.464 34.464C286.032 34.464 284.144 36.544 282.8 40.704C281.52 44.8 280.88 48.64 280.88 52.224Z" stroke="white" stroke-width="6" mask="url(#path-1-outside-1)"/>
</svg>
